<svg id="Layer_1" data-name="Layer 1" xmlns="http://www.w3.org/2000/svg" viewBox="0 0 300 300"><defs><style>.cls-1{fill:#5d524c;}.cls-2{fill:#f26722;}.cls-3{fill:#231f20;}.cls-4{fill:#fff;}</style></defs><title>Bstan_Logo_</title><path class="cls-1" d="M91.83,207.41v.05a1.16,1.16,0,0,1,0,.16,1.24,1.24,0,0,1,0,.28,1.37,1.37,0,0,1,0,.19c0,.06,0,.13,0,.21a2.12,2.12,0,0,1-.66.92,3.33,3.33,0,0,1-1.4.67,3,3,0,0,1-1,.07,4.83,4.83,0,0,1-2-.66,4.81,4.81,0,0,1-.94-.77,6,6,0,0,1-1.31-2.26c-.07-.22-.13-.45-.19-.68s-.1-.46-.13-.7a6.13,6.13,0,0,1,0-.74,4.83,4.83,0,0,1,0-.76,7,7,0,0,1,.34-1.53,8,8,0,0,1,.69-1.49,8.71,8.71,0,0,1,2.38-2.59,8.09,8.09,0,0,1,.79-.5c.14-.08.28-.16.43-.23L89,197l.22-.1a10.66,10.66,0,0,1,1.89-.59,13.93,13.93,0,0,1,4.15-.2,22.06,22.06,0,0,1,4.35.87,34,34,0,0,1,4.39,1.64c.37.16.73.33,1.1.51l.55.27.27.14.28.14.54.29.55.3.54.3.55.31c.72.42,1.45.84,2.18,1.28l1.1.66,1.11.67,2.24,1.38,1.13.7.57.35.29.18.29.19c1.54,1,3,2,4.57,3.09.77.52,1.55,1,2.35,1.51.4.25.8.48,1.21.71l.63.33.07,0,.08,0,.16.08.32.15a21.9,21.9,0,0,0,2.64,1.1,15.72,15.72,0,0,0,2.82.7,9.85,9.85,0,0,0,2.92,0,6.58,6.58,0,0,0,1.44-.35,6.11,6.11,0,0,0,1.32-.68,5,5,0,0,0,1.85-2.32,5.14,5.14,0,0,0,.35-1.49,3.9,3.9,0,0,0-.18-1.51,3.39,3.39,0,0,0-.79-1.31,4.77,4.77,0,0,0-1.26-.91,6,6,0,0,0-1.49-.52,8.2,8.2,0,0,0-1.57-.17,12.26,12.26,0,0,0-1.6.09,14,14,0,0,0-1.57.3c-1,.26-2.06.62-3.09,1s-2,.74-3,1.17-2,.87-3,1.35-2,1-3,1.49-2,1-3,1.52a28.1,28.1,0,0,1-3.14,1.32,14.22,14.22,0,0,1-3.4.75,10.71,10.71,0,0,1-1.79,0l-.23,0h-.12l-.1,0h-.11l-.11,0-.23,0c-.29-.06-.59-.13-.88-.21s-.58-.19-.87-.3-.56-.25-.83-.39a8,8,0,0,1-.79-.49l-.37-.28-.09-.07-.09-.08-.17-.15-.34-.32-.31-.34a8.12,8.12,0,0,1-.56-.75,7.16,7.16,0,0,1-.79-1.65,7.81,7.81,0,0,1-.36-1.78,8.7,8.7,0,0,1,0-.89v-.44a783671722469.69,783671722469.69,0,0,0,0-.22,1.64,1.64,0,0,1,0-.22,8.19,8.19,0,0,1,.4-1.71c.1-.28.21-.54.33-.81s.27-.52.42-.77a8.67,8.67,0,0,1,1.05-1.38,6,6,0,0,1,.64-.59,7,7,0,0,1,.69-.53,6.83,6.83,0,0,1,1.55-.78,6.5,6.5,0,0,1,.84-.22,5.16,5.16,0,0,1,.87-.1,7.73,7.73,0,0,1,1.73.14,5.2,5.2,0,0,1,.84.22c.14,0,.27.1.4.15l.4.19a6.37,6.37,0,0,1,1.41,1,5.74,5.74,0,0,1,1.07,1.38,5.06,5.06,0,0,1,.57,1.65,5.15,5.15,0,0,1,0,1.75,5.05,5.05,0,0,1-.25.84,3,3,0,0,1-.17.41,4,4,0,0,1-.23.39,3.73,3.73,0,0,1-.6.66,4.76,4.76,0,0,1-.73.51,5,5,0,0,1-.81.38,4.59,4.59,0,0,1-.9.24,3.57,3.57,0,0,1-.47,0,2.5,2.5,0,0,1-.47,0,3.12,3.12,0,0,1-.94-.25,3,3,0,0,1-.82-.54,2.82,2.82,0,0,1-.33-.36l-.08-.1a.43.43,0,0,1-.07-.1,2.39,2.39,0,0,1-.13-.21,3,3,0,0,1-.33-.91,3.38,3.38,0,0,1,0-1,4.66,4.66,0,0,1,.6-1.7,6.84,6.84,0,0,1,1.09-1.37,8.43,8.43,0,0,1,1.38-1.06l.19-.11.19-.1.2-.1.2-.09a5.77,5.77,0,0,1,.82-.31,8.4,8.4,0,0,1,1.73-.33,11.47,11.47,0,0,1,1.76,0,18.18,18.18,0,0,1,3.45.6l.85.25.82.29c.55.19,1.09.41,1.63.64a30,30,0,0,1,3.09,1.59l.37.23.36.23.72.44,1.43.88c1,.59,1.92,1.18,2.87,1.79l.71.46.7.46.69.43.7.42a19.13,19.13,0,0,0,2.94,1.37l.1,0,.09,0,.2.06.38.12.79.2a10.67,10.67,0,0,0,1.59.22,7.3,7.3,0,0,0,.81,0c.27,0,.54,0,.8-.06s.54-.09.8-.15a5.28,5.28,0,0,0,.77-.24l.38-.14c.12-.06.24-.11.36-.18l.18-.09.18-.1.17-.1.17-.11a1.94,1.94,0,0,0,.33-.23l.28-.28a3.7,3.7,0,0,0,.47-.65,2.81,2.81,0,0,0,.3-.74,2.05,2.05,0,0,0,.07-.78,1.41,1.41,0,0,0-.3-.72,1.23,1.23,0,0,0-.29-.27l-.17-.11-.08-.05-.09,0a3.33,3.33,0,0,0-1.55-.33,4.61,4.61,0,0,0-1.55.32,7.45,7.45,0,0,0-1.4.73,8.4,8.4,0,0,0-1.23,1c-.19.18-.37.37-.55.56l-.12.15-.12.15a1.67,1.67,0,0,0-.12.16l-.12.15a5.59,5.59,0,0,0-.41.66,5.52,5.52,0,0,0-.34.69,4.79,4.79,0,0,0-.24.73,4.94,4.94,0,0,0-.14.75,1.1,1.1,0,0,0,0,.18l0,.19v.38a4.74,4.74,0,0,0,.06.75,6.24,6.24,0,0,0,.4,1.42l.15.34c0,.11.1.22.16.33l.18.32c.06.1.13.19.2.29a4.89,4.89,0,0,0,2.21,1.68,5.23,5.23,0,0,0,1.35.33,4.09,4.09,0,0,0,.7,0,4.22,4.22,0,0,0,.7-.1,3.28,3.28,0,0,0,1.26-.61,1.8,1.8,0,0,0,.45-.54,1.41,1.41,0,0,0,.19-.67,2.16,2.16,0,0,0,0-.35,1.27,1.27,0,0,0-.13-.32,1.14,1.14,0,0,0-.5-.47,1,1,0,0,0-.33-.1.52.52,0,0,0-.33.06.29.29,0,0,0-.1.12.41.41,0,0,0,0,.16,1.07,1.07,0,0,0,.11.33l0,.07.05.07.12.13a1.17,1.17,0,0,0,.3.19,2,2,0,0,0,.69.16,5.16,5.16,0,0,0,1.41-.14,6.6,6.6,0,0,0,1.34-.45,7.06,7.06,0,0,0,1.19-.76,8.12,8.12,0,0,0,1.83-2,8.33,8.33,0,0,0,1.08-2.47,7,7,0,0,0,.15-2.6l-.06-.32v-.08s0-.05,0-.07l0-.08a.24.24,0,0,0,0-.08,1,1,0,0,0,0-.14.88.88,0,0,0-.05-.15c0-.09-.07-.19-.11-.28a5.26,5.26,0,0,0-.58-1.07,5.72,5.72,0,0,0-.76-.92,5.08,5.08,0,0,0-.89-.73l-.11-.07-.06,0-.07,0-.07,0-.06,0-.13-.07a5.05,5.05,0,0,0-.53-.24,6.19,6.19,0,0,0-1.1-.37,8.51,8.51,0,0,0-1.14-.22,11.12,11.12,0,0,0-1.16-.06h-.58l-.29,0h-.29l-.3,0-.28,0-.57.1-.57.13c-.19,0-.37.1-.56.15-.37.11-.73.24-1.08.38s-.7.3-1,.47l-.5.26-.25.14-.24.14-.24.15-.23.14-.12.08-.12.07-.23.15-.89.63c-.59.43-1.15.88-1.68,1.34s-1,.93-1.52,1.41-.95,1-1.39,1.45c-.89,1-1.71,1.94-2.51,2.86-.4.46-.8.91-1.2,1.34s-.79.84-1.19,1.24a21.92,21.92,0,0,1-2.44,2.08l-.31.22a3.28,3.28,0,0,1-.31.2l-.31.2-.32.18a9,9,0,0,1-1.3.54,8.61,8.61,0,0,1-2.53.41,5.4,5.4,0,0,1-1.15-.14,3.25,3.25,0,0,1-1-.42,3.19,3.19,0,0,1-.74-.67l-.07-.1a.36.36,0,0,1-.07-.1l0,0,0,0,0,0s0,0,0,0l0-.06a1.46,1.46,0,0,1-.16-.44,1.92,1.92,0,0,1,0-.86,1.32,1.32,0,0,1,.41-.68l.07-.07.07,0h0l0,0h0l.07,0,.3-.11a.92.92,0,0,1,.28,0,.94.94,0,0,1,.29,0,.71.71,0,0,1,.16.07h0l0,0s0,0,0,.05a.55.55,0,0,1,.14.18.7.7,0,0,1,.06.17.92.92,0,0,1,0,.16.28.28,0,0,1-.09.19l-.07,0,0,0a0,0,0,0,0,0,0,.11.11,0,0,0,0-.05.09.09,0,0,0,0-.06.21.21,0,0,0-.06-.08l-.08-.08-.11-.06h-.09l-.15,0-.21.05-.21.09-.05,0h0l0,0-.05,0a1,1,0,0,0-.29.44,1.74,1.74,0,0,0-.08.66,1.55,1.55,0,0,0,.08.36l0,0s0,0,0,0v0l0,0a.41.41,0,0,1,0,.09l.06.09a2.25,2.25,0,0,0,.63.64,3.06,3.06,0,0,0,.92.4,4.79,4.79,0,0,0,1.1.15,8.2,8.2,0,0,0,2.46-.38,8.53,8.53,0,0,0,1.28-.51l.31-.17.31-.19.31-.2.31-.21a20.41,20.41,0,0,0,2.44-2.05c.8-.77,1.6-1.63,2.4-2.55s1.63-1.88,2.51-2.86q.66-.74,1.38-1.47l.74-.72.39-.36.39-.35c.53-.47,1.08-.93,1.66-1.37.29-.22.59-.43.9-.64a1.88,1.88,0,0,1,.23-.16l.11-.08.12-.08.23-.15.24-.15.49-.29.24-.15.25-.14c.33-.19.68-.37,1-.54s.71-.34,1.07-.5.74-.3,1.13-.43c.19-.06.38-.13.58-.18l.59-.15.16,0,.15,0,.31-.06.62-.09a11,11,0,0,1,1.29-.05,7.41,7.41,0,0,1,1.31.15,7.57,7.57,0,0,1,1.28.4c.21.08.42.18.62.28l.15.08.08.05.07,0,.06,0,.08,0,.16.09a5.54,5.54,0,0,1,1,1,6.93,6.93,0,0,1,.78,1.16,6.68,6.68,0,0,1,.5,1.31c0,.11.05.23.07.34l0,.18,0,.18a.19.19,0,0,0,0,.08v.09a.28.28,0,0,1,0,.09v.08c0,.12,0,.23,0,.35a8.56,8.56,0,0,1-.47,2.7,10,10,0,0,1-.51,1.28,10.32,10.32,0,0,1-.69,1.2,8.71,8.71,0,0,1-1.9,2l-.58.4-.31.18-.31.16a6,6,0,0,1-.66.26,5.91,5.91,0,0,1-.69.19,5.73,5.73,0,0,1-.7.13,3.47,3.47,0,0,1-.72,0,1.92,1.92,0,0,1-.71-.15,1.29,1.29,0,0,1-.32-.19l-.13-.14-.05-.07a.35.35,0,0,1,0-.08.9.9,0,0,1-.12-.36.32.32,0,0,1,0-.19.29.29,0,0,1,.13-.16.63.63,0,0,1,.38-.08,1.14,1.14,0,0,1,.36.1,1.31,1.31,0,0,1,.57.5,1.42,1.42,0,0,1,.14.36,1.55,1.55,0,0,1,0,.37,1.61,1.61,0,0,1-.16.75,2.15,2.15,0,0,1-.44.64,3.14,3.14,0,0,1-.6.49,4.2,4.2,0,0,1-.7.36,4.28,4.28,0,0,1-1.55.31,4.79,4.79,0,0,1-1.59-.27,5.1,5.1,0,0,1-2.52-2c-.07-.12-.14-.23-.21-.36a.41.41,0,0,0,0-.09l0-.09,0-.09,0-.09c-.06-.12-.11-.25-.16-.37s-.09-.25-.12-.38a6.49,6.49,0,0,1-.3-1.58,6.39,6.39,0,0,1,.59-3.11,7.75,7.75,0,0,1,1.89-2.54,9.2,9.2,0,0,1,1.27-1,7.06,7.06,0,0,1,1.43-.71,5,5,0,0,1,1.58-.31,3.7,3.7,0,0,1,.81.07,3,3,0,0,1,.76.26l.1,0,.08,0,.18.11a2,2,0,0,1,.3.28,1.43,1.43,0,0,1,.32.76,2.07,2.07,0,0,1-.05.82,3.5,3.5,0,0,1-.29.76,3.58,3.58,0,0,1-.47.68,2.76,2.76,0,0,1-.29.3l-.33.26c-.23.16-.46.3-.7.44l-.37.19-.38.17a7.77,7.77,0,0,1-1.59.51c-.27.06-.55.1-.83.14l-.42,0-.42,0h-.85c-.28,0-.57,0-.85-.07s-.56-.07-.84-.12l-.43-.08-.2,0-.11,0-.1,0a17.74,17.74,0,0,1-3.24-1.12l-.39-.18-.39-.19-.38-.2-.38-.21-.19-.1-.18-.1-.37-.21-.72-.42c-1-.56-1.94-1.13-2.91-1.72l-.73-.45-.72-.46-.71-.46-.35-.24-.35-.23c-.94-.6-1.89-1.17-2.88-1.7a25.43,25.43,0,0,0-3-1.41,14.87,14.87,0,0,0-1.59-.54c-.27-.08-.54-.15-.82-.21s-.54-.11-.82-.15a9.51,9.51,0,0,0-1.68-.13,7.86,7.86,0,0,0-1.67.2,5.44,5.44,0,0,0-.81.25l-.2.08-.19.08-.19.1-.19.1a7.11,7.11,0,0,0-1.39,1l-.16.15-.15.15a2.16,2.16,0,0,0-.27.33,3.38,3.38,0,0,0-.44.73,3.26,3.26,0,0,0-.28,1.62,3.21,3.21,0,0,0,.18.77,2.67,2.67,0,0,0,.37.66l.11.15.06.07.07.07a2.23,2.23,0,0,0,.27.26,3.17,3.17,0,0,0,.62.41,3.39,3.39,0,0,0,.71.28,2.34,2.34,0,0,0,.38.09l.4,0a3.17,3.17,0,0,0,.81,0,3.18,3.18,0,0,0,1.51-.68,3,3,0,0,0,.58-.61,2.56,2.56,0,0,0,.22-.35,3.39,3.39,0,0,0,.18-.39,4.84,4.84,0,0,0,.25-.82,4.62,4.62,0,0,0,.07-1.7,5,5,0,0,0-.53-1.62,5.57,5.57,0,0,0-1-1.37,6,6,0,0,0-1.39-1l-.39-.2c-.13,0-.26-.11-.4-.15a7.79,7.79,0,0,0-.83-.22,8.43,8.43,0,0,0-.86-.11,8.23,8.23,0,0,0-.86,0,4.82,4.82,0,0,0-.85.11,4.63,4.63,0,0,0-.83.23,6.28,6.28,0,0,0-1.52.79,8,8,0,0,0-2.3,2.5,7.69,7.69,0,0,0-.68,1.56,5.74,5.74,0,0,0-.19.82c0,.14,0,.28-.05.42s0,.28,0,.42v.21s0,.07,0,.1v.11a1.49,1.49,0,0,1,0,.21l0,.2a7.45,7.45,0,0,0,.17.82,7.1,7.1,0,0,0,.6,1.51,7.55,7.55,0,0,0,.91,1.3q.27.3.54.57l.15.14.14.13.3.25.16.13.07.05.08.06.32.23a7.23,7.23,0,0,0,.66.4c.23.13.46.24.7.35l.73.28c.25.08.51.16.76.22l.19.05.1,0,.1,0,.11,0h.09l.19,0a12.06,12.06,0,0,0,1.59.16,13.8,13.8,0,0,0,3.25-.33,19.72,19.72,0,0,0,3.17-1c.52-.21,1-.43,1.53-.66l1.49-.73c1-.5,2-1,3-1.43s2-.89,3-1.3,2-.79,3.07-1.13,2-.71,3.09-1a13.26,13.26,0,0,1,3.19-.39,9.42,9.42,0,0,1,1.59.16,6.25,6.25,0,0,1,1.51.51,5.06,5.06,0,0,1,.68.4,3.92,3.92,0,0,1,.32.25l.3.27a3.52,3.52,0,0,1,.83,1.34,4,4,0,0,1,.21,1.56,5.36,5.36,0,0,1-.33,1.54,5.57,5.57,0,0,1-.76,1.37,4.8,4.8,0,0,1-.51.59,5.78,5.78,0,0,1-.6.51,7,7,0,0,1-1.36.77,8.43,8.43,0,0,1-1.48.45,11.65,11.65,0,0,1-3.06.15,18.54,18.54,0,0,1-3-.5,22.87,22.87,0,0,1-2.84-.9,26.91,26.91,0,0,1-2.68-1.19c-.87-.44-1.7-.92-2.51-1.4-1.62-1-3.15-2-4.66-2.94l-1.14-.71-1.14-.71-2.22-1.4-4.29-2.73-.53-.33-.52-.32-.51-.31-.52-.31-.26-.15-.26-.15-.51-.29c-.35-.2-.7-.38-1-.56q-1-.56-2.07-1c-.69-.31-1.39-.6-2.08-.85a21.32,21.32,0,0,0-4.13-1.12,13.12,13.12,0,0,0-4,0A9.05,9.05,0,0,0,87.7,198a8,8,0,0,0-2.42,2.47,6.72,6.72,0,0,0-.68,1.47,6.22,6.22,0,0,0-.3,1.51c0,.25,0,.5,0,.74a4.18,4.18,0,0,0,.09.71,5.82,5.82,0,0,0,.42,1.3,5.5,5.5,0,0,0,1.44,1.94,4.94,4.94,0,0,0,1.75,1,4.82,4.82,0,0,0,.87.18,3.22,3.22,0,0,0,.76,0,3.37,3.37,0,0,0,1.22-.42,2,2,0,0,0,.69-.64,1.52,1.52,0,0,0,.22-.55,1.37,1.37,0,0,0,0-.16v-.05Z"/><path class="cls-1" d="M116,202.85h.24a3.17,3.17,0,0,1,.68.16l.46.18.25.11.28.12.14.06.07,0,.08,0,.15.08.15.08.64.35.67.37.37.19.38.21.77.45.79.5.8.52.82.54.82.55.84.55L127.1,209l.82.52.41.25.4.25.2.12.19.12.39.24.75.42c.25.12.49.24.73.34s.48.21.71.29l.67.21.61.15a4.88,4.88,0,0,0,1,.09,2.88,2.88,0,0,0,.66-.1l.17-.06.05,0,0,0,0,0-.16.09a2.52,2.52,0,0,1-.66.24l-.49.07a5.9,5.9,0,0,1-.6,0,5.3,5.3,0,0,1-.66-.07c-.24,0-.48-.08-.73-.14s-.51-.14-.78-.23a7.17,7.17,0,0,1-.8-.3c-.28-.11-.55-.24-.83-.38l-.41-.22-.41-.22-.42-.24-.42-.24-.84-.51-.42-.26-.43-.27-.42-.27-.42-.28-.42-.27-.42-.29-.82-.57-1.56-1.13-.75-.53-.37-.25-.17-.13-.18-.12-.35-.23-.34-.22q-.36-.22-.66-.45l-.59-.42-.13-.09-.13-.09-.07,0-.07,0-.13-.08-.25-.16-.24-.14-.41-.24-.35-.17-.26-.09-.17,0H116Z"/><path class="cls-1" d="M104,196.63l-.29.1-.29.11-.28.12-.28.13-.27.14-.27.15-.26.15-.26.16-.26.18c-.08,0-.16.12-.24.18l-.24.18-.23.2-.23.21-.22.21-.21.22-.2.22-.2.24-.19.24-.17.24-.17.25-.16.26c-.05.09-.11.17-.15.26l-.15.27-.13.27-.12.28-.12.28c0,.1-.07.19-.1.28l-.09.29-.09.29c0,.1,0,.2-.07.3l-.06.29-.06.3-.23,1.28-.09-1.31h0a4,4,0,0,0-.23-.87l0-.11,0-.1,0-.11,0-.1-.09-.21v0h0l0-.05,0-.11-.06-.1a.31.31,0,0,0,0-.1l0-.09-.06-.1-.12-.19-.12-.18a3250907247501.38,3250907247501.38,0,0,1-.28-.34l-.15-.16-.16-.15,0,0,0,0-.08-.07-.09-.07h0l0,0-.17-.12-.09-.06-.09-.06-.19-.1-.2-.09-.09,0-.1,0-.21-.07-.1,0-.11,0-.21-.06-.42-.07a5.18,5.18,0,0,0-.88,0,3.7,3.7,0,0,0-.87.16,3.09,3.09,0,0,0-.82.39l-.09.06-.09.07-.09.07-.08.07,0,0,0,0,0,0,0,0,0,0-.13.18a2.18,2.18,0,0,0-.28.86,1.61,1.61,0,0,0,0,.44,1.34,1.34,0,0,0,.15.41.81.81,0,0,0,.29.29l.1.05h0l0,0h.21a1.17,1.17,0,0,0,.74-.18l.12-.11.09-.14a1.59,1.59,0,0,0,.08-.18l.07-.23h0a.6.6,0,0,1,.19.52.63.63,0,0,1-.1.29,1.15,1.15,0,0,1-.21.23,1.12,1.12,0,0,1-.54.2A1.63,1.63,0,0,1,91,203L91,203l-.06,0-.06,0h-.06l-.06,0-.06,0-.06,0,0,0a1.33,1.33,0,0,1-.35-.4,1.41,1.41,0,0,1-.15-.48,1.68,1.68,0,0,1,0-.5l0-.25.06-.24a3,3,0,0,1,.19-.46,2.39,2.39,0,0,1,.13-.21.1.1,0,0,1,0-.05l0-.05,0,0,0,0,0-.05.09-.09a.6.6,0,0,1,.08-.08l.1-.09.09-.08a4.23,4.23,0,0,1,.83-.54,3.89,3.89,0,0,1,1-.33l.5-.08h.51a3.88,3.88,0,0,1,1,.17,4,4,0,0,1,.94.42.41.41,0,0,1,.11.07.41.41,0,0,1,.11.07,1.92,1.92,0,0,1,.21.16l0,0,0,0h0l.09.08.1.09,0,0,0,.05.18.18.16.19.16.21a1.53,1.53,0,0,1,.14.21l.13.21.12.23c0,.07.07.15.11.23a.61.61,0,0,0,0,.12l0,.11,0,.11,0,0v.07c0,.08.05.15.07.23l0,.12,0,.12,0,.12,0,.12,0,.12,0,.13,0,.24a2.9,2.9,0,0,1,0,.51h0l-.32,0,.07-.31.07-.3.09-.3.09-.3c0-.1.07-.19.11-.29s.07-.19.11-.29.09-.19.13-.29.09-.18.13-.28l.15-.27.15-.27.16-.27.18-.26.18-.25.19-.25.19-.24.21-.23.21-.22.23-.22.22-.21.24-.2.24-.19.25-.19.26-.17.26-.17.26-.16.27-.15.28-.14.28-.13.28-.12.29-.11.29-.1.29-.1Z"/><path class="cls-1" d="M208.17,207.41v.05a1.16,1.16,0,0,0,0,.16.84.84,0,0,0,0,.28,1.37,1.37,0,0,0,0,.19c0,.06,0,.13.05.21a2.12,2.12,0,0,0,.66.92,3.33,3.33,0,0,0,1.4.67,3,3,0,0,0,1,.07,4.83,4.83,0,0,0,2-.66,4.81,4.81,0,0,0,.94-.77,6,6,0,0,0,1.31-2.26c.07-.22.13-.45.19-.68s.1-.46.13-.7a6.13,6.13,0,0,0,.05-.74,4.83,4.83,0,0,0,0-.76,7,7,0,0,0-.34-1.53,8,8,0,0,0-.69-1.49,8.71,8.71,0,0,0-2.38-2.59,8.09,8.09,0,0,0-.79-.5c-.14-.08-.28-.16-.43-.23L211,197l-.22-.1a10.66,10.66,0,0,0-1.89-.59,13.93,13.93,0,0,0-4.15-.2,22.06,22.06,0,0,0-4.35.87,34,34,0,0,0-4.39,1.64c-.37.16-.73.33-1.1.51l-.55.27-.27.14-.28.14-.54.29-.55.3-.54.3-.55.31c-.72.42-1.45.84-2.18,1.28l-1.1.66-1.11.67L185,204.82l-1.13.7-.57.35-.29.18-.29.19c-1.54,1-3,2-4.57,3.09-.77.52-1.55,1-2.35,1.51-.4.25-.8.48-1.21.71l-.63.33-.07,0-.08,0-.16.08-.32.15a21.9,21.9,0,0,1-2.64,1.1,15.72,15.72,0,0,1-2.82.7,9.85,9.85,0,0,1-2.92,0,6.58,6.58,0,0,1-1.44-.35,6.11,6.11,0,0,1-1.32-.68,5,5,0,0,1-1.85-2.32,5.14,5.14,0,0,1-.35-1.49,4.1,4.1,0,0,1,.18-1.51,3.39,3.39,0,0,1,.79-1.31,4.77,4.77,0,0,1,1.26-.91,6,6,0,0,1,1.49-.52,8.2,8.2,0,0,1,1.57-.17,12.26,12.26,0,0,1,1.6.09,14,14,0,0,1,1.57.3c1,.26,2.07.62,3.09,1s2,.74,3,1.17,2,.87,3,1.35,2,1,3,1.49,2,1,3,1.52a28.1,28.1,0,0,0,3.14,1.32,14.22,14.22,0,0,0,3.4.75,10.71,10.71,0,0,0,1.79,0l.23,0h.12l.1,0h.11l.11,0,.23,0c.29-.06.59-.13.88-.21s.58-.19.87-.3.56-.25.83-.39a8,8,0,0,0,.79-.49l.37-.28.09-.07.09-.08.17-.15.34-.32.31-.34a8.12,8.12,0,0,0,.56-.75,7.16,7.16,0,0,0,.79-1.65,7.81,7.81,0,0,0,.36-1.78,8.7,8.7,0,0,0,0-.89v-.44a.41.41,0,0,0,0-.11.41.41,0,0,0,0-.11,1.64,1.64,0,0,0,0-.22,8.19,8.19,0,0,0-.4-1.71c-.1-.28-.21-.54-.33-.81s-.27-.52-.42-.77a8.67,8.67,0,0,0-1-1.38,6,6,0,0,0-.64-.59,7,7,0,0,0-.69-.53,6.83,6.83,0,0,0-1.55-.78,6.5,6.5,0,0,0-.84-.22,5.16,5.16,0,0,0-.87-.1,7.73,7.73,0,0,0-1.73.14,5.2,5.2,0,0,0-.84.22c-.14,0-.27.1-.41.15l-.39.19a6.37,6.37,0,0,0-1.41,1,5.74,5.74,0,0,0-1.07,1.38,5.06,5.06,0,0,0-.57,1.65,4.91,4.91,0,0,0,0,1.75,4.22,4.22,0,0,0,.24.84,3,3,0,0,0,.17.41,4,4,0,0,0,.23.39,3.73,3.73,0,0,0,.6.66,4.76,4.76,0,0,0,.73.51,5,5,0,0,0,.81.38,4.59,4.59,0,0,0,.9.24,3.57,3.57,0,0,0,.47,0,2.5,2.5,0,0,0,.47,0,3.12,3.12,0,0,0,.94-.25,3,3,0,0,0,.82-.54,2.82,2.82,0,0,0,.33-.36l.08-.1a.43.43,0,0,0,.07-.1,2.39,2.39,0,0,0,.13-.21,3,3,0,0,0,.33-.91,3.38,3.38,0,0,0,0-1,4.66,4.66,0,0,0-.6-1.7,6.84,6.84,0,0,0-1.09-1.37,8.43,8.43,0,0,0-1.38-1.06l-.19-.11-.19-.1-.2-.1-.2-.09a5.77,5.77,0,0,0-.82-.31,8.4,8.4,0,0,0-1.73-.33,11.47,11.47,0,0,0-1.76,0,18.18,18.18,0,0,0-3.45.6l-.84.25-.83.29c-.55.19-1.09.41-1.63.64a30,30,0,0,0-3.09,1.59l-.37.23-.36.23-.72.44-1.43.88c-1,.59-1.92,1.18-2.87,1.79l-.71.46-.7.46-.69.43-.7.42a19.13,19.13,0,0,1-2.94,1.37l-.1,0-.09,0-.2.06-.38.12-.79.2a10.67,10.67,0,0,1-1.59.22,7.3,7.3,0,0,1-.81,0c-.27,0-.54,0-.8-.06s-.54-.09-.8-.15a5.28,5.28,0,0,1-.77-.24l-.38-.14c-.12-.06-.24-.11-.36-.18l-.18-.09-.18-.1-.17-.1-.17-.11a1.94,1.94,0,0,1-.33-.23l-.28-.28a3.7,3.7,0,0,1-.47-.65,2.81,2.81,0,0,1-.3-.74,2.05,2.05,0,0,1-.07-.78,1.41,1.41,0,0,1,.3-.72,1.23,1.23,0,0,1,.29-.27l.17-.11.08-.05.09,0a3.33,3.33,0,0,1,1.55-.33,4.61,4.61,0,0,1,1.55.32,7.45,7.45,0,0,1,1.4.73,8.4,8.4,0,0,1,1.23,1c.19.18.37.37.55.56l.12.15.12.15a1.67,1.67,0,0,1,.12.16l.12.15a5.59,5.59,0,0,1,.41.66,5.52,5.52,0,0,1,.34.69,4.79,4.79,0,0,1,.24.73,4.94,4.94,0,0,1,.14.75,1.1,1.1,0,0,1,0,.18l0,.19v.38a4.74,4.74,0,0,1-.06.75,6.24,6.24,0,0,1-.4,1.42l-.15.34c0,.11-.1.22-.16.33l-.18.32c-.06.1-.13.19-.2.29a4.89,4.89,0,0,1-2.21,1.68,5.23,5.23,0,0,1-1.35.33,4.09,4.09,0,0,1-.7,0,4.22,4.22,0,0,1-.7-.1,3.28,3.28,0,0,1-1.26-.61,1.8,1.8,0,0,1-.45-.54,1.41,1.41,0,0,1-.19-.67,2.16,2.16,0,0,1,0-.35,1.27,1.27,0,0,1,.13-.32,1.14,1.14,0,0,1,.5-.47,1,1,0,0,1,.33-.1.52.52,0,0,1,.33.06.29.29,0,0,1,.1.12.41.41,0,0,1,0,.16,1.07,1.07,0,0,1-.11.33l0,.07-.05.07-.12.13a1.17,1.17,0,0,1-.3.19,2,2,0,0,1-.69.16,5.16,5.16,0,0,1-1.41-.14,6.81,6.81,0,0,1-1.34-.45,7.06,7.06,0,0,1-1.19-.76,8.12,8.12,0,0,1-1.83-2,8.33,8.33,0,0,1-1.08-2.47,7,7,0,0,1-.15-2.6l.06-.32v-.08s0-.05,0-.07l0-.08a.24.24,0,0,1,0-.08,1,1,0,0,1,0-.14.88.88,0,0,1,.05-.15c0-.09.07-.19.11-.28a5.26,5.26,0,0,1,.58-1.07,5.72,5.72,0,0,1,.76-.92,5.08,5.08,0,0,1,.89-.73l.11-.07.06,0,.07,0,.07,0,.06,0,.13-.07a5.05,5.05,0,0,1,.53-.24,6.19,6.19,0,0,1,1.1-.37,8.51,8.51,0,0,1,1.14-.22,11.12,11.12,0,0,1,1.16-.06h.58l.29,0h.29l.3,0,.28,0,.57.1.57.13c.19,0,.37.1.56.15.37.11.73.24,1.08.38s.7.3,1,.47l.5.26.25.14.24.14.24.15.23.14.12.08.12.07.23.15.89.63c.59.43,1.15.88,1.68,1.34s1,.93,1.52,1.41.95,1,1.39,1.45c.89,1,1.71,1.94,2.51,2.86.4.46.8.91,1.2,1.34s.79.84,1.19,1.24a21.92,21.92,0,0,0,2.44,2.08l.31.22a3.28,3.28,0,0,0,.31.2l.31.2.32.18a9,9,0,0,0,1.3.54,8.61,8.61,0,0,0,2.53.41,5.32,5.32,0,0,0,1.15-.14,3.25,3.25,0,0,0,1-.42,3,3,0,0,0,.74-.67l.07-.1a.36.36,0,0,0,.07-.1l0,0,0,0,0,0s0,0,0,0l0-.06a1.46,1.46,0,0,0,.16-.44,1.92,1.92,0,0,0,0-.86,1.32,1.32,0,0,0-.41-.68l-.07-.07-.07,0h0l0,0h0l-.07,0-.3-.11a.92.92,0,0,0-.28,0,.94.94,0,0,0-.29,0,.71.71,0,0,0-.16.07h0l0,0-.05.05a.55.55,0,0,0-.14.18.7.7,0,0,0-.06.17.92.92,0,0,0,0,.16.28.28,0,0,0,.09.19l.07,0,0,0a0,0,0,0,1,0,0,.11.11,0,0,1,0-.05.09.09,0,0,1,0-.06.21.21,0,0,1,.06-.08l.08-.08.11-.06h.09l.15,0,.21.05.21.09.05,0h0l0,0,0,0a1,1,0,0,1,.29.44,1.53,1.53,0,0,1,0,1l0,0s0,0,0,0v0l0,0a.41.41,0,0,0-.05.09l-.06.09a2.25,2.25,0,0,1-.63.64,3.06,3.06,0,0,1-.92.4,4.79,4.79,0,0,1-1.1.15,8.2,8.2,0,0,1-2.46-.38,9,9,0,0,1-1.28-.51l-.31-.17-.31-.19-.31-.2-.31-.21a20.41,20.41,0,0,1-2.44-2.05c-.8-.77-1.6-1.63-2.4-2.55s-1.63-1.88-2.51-2.86q-.66-.74-1.38-1.47l-.74-.72-.39-.36-.39-.35c-.53-.47-1.08-.93-1.66-1.37-.29-.22-.59-.43-.9-.64a1.88,1.88,0,0,0-.23-.16l-.11-.08-.12-.08-.23-.15-.24-.15-.49-.29-.24-.15-.25-.14c-.33-.19-.68-.37-1-.54s-.71-.34-1.07-.5-.74-.3-1.13-.43c-.19-.06-.38-.13-.58-.18l-.59-.15-.16,0-.15,0-.31-.06-.62-.09a11,11,0,0,0-1.29-.05,7.41,7.41,0,0,0-1.31.15,7.57,7.57,0,0,0-1.28.4c-.21.08-.42.18-.62.28l-.15.08-.08.05-.07,0-.06,0-.08,0-.15.09a5.31,5.31,0,0,0-1,1,6.93,6.93,0,0,0-.78,1.16,6.68,6.68,0,0,0-.5,1.31c0,.11-.05.23-.07.34l0,.18,0,.18a.19.19,0,0,1,0,.08v.09a.28.28,0,0,0,0,.09v.08c0,.12,0,.23,0,.35a8.56,8.56,0,0,0,.47,2.7,10,10,0,0,0,.51,1.28,10.32,10.32,0,0,0,.69,1.2,8.71,8.71,0,0,0,1.9,2l.58.4.31.18.31.16a6,6,0,0,0,.66.26,5.91,5.91,0,0,0,.69.19,5.73,5.73,0,0,0,.7.13,3.47,3.47,0,0,0,.72,0,1.92,1.92,0,0,0,.71-.15,1.29,1.29,0,0,0,.32-.19l.13-.14.05-.07a.35.35,0,0,0,0-.08.9.9,0,0,0,.12-.36.32.32,0,0,0,0-.19.29.29,0,0,0-.13-.16.63.63,0,0,0-.38-.08,1.14,1.14,0,0,0-.36.1,1.31,1.31,0,0,0-.57.5,1.42,1.42,0,0,0-.14.36,1.55,1.55,0,0,0,0,.37,1.61,1.61,0,0,0,.16.75,2.15,2.15,0,0,0,.44.64,3.14,3.14,0,0,0,.6.49,4.2,4.2,0,0,0,.7.36,4.28,4.28,0,0,0,1.55.31,4.79,4.79,0,0,0,1.59-.27,5.1,5.1,0,0,0,2.52-2c.07-.12.14-.23.21-.36a.41.41,0,0,1,0-.09l0-.09,0-.09,0-.09c.06-.12.11-.25.16-.37s.09-.25.12-.38a7,7,0,0,0,.3-1.58,6.39,6.39,0,0,0-.59-3.11,7.75,7.75,0,0,0-1.89-2.54,9.2,9.2,0,0,0-1.27-1,7.06,7.06,0,0,0-1.43-.71,5,5,0,0,0-1.58-.31,3.7,3.7,0,0,0-.81.07,3,3,0,0,0-.76.26l-.1,0-.08,0-.18.11a2,2,0,0,0-.3.28,1.43,1.43,0,0,0-.32.76,2.07,2.07,0,0,0,.05.82,3.08,3.08,0,0,0,.3.76,3.13,3.13,0,0,0,.46.68,2.76,2.76,0,0,0,.29.3l.33.26c.23.16.46.3.7.44l.37.19.38.17a8,8,0,0,0,1.59.51c.27.06.55.1.83.14l.42,0,.42,0h.85c.28,0,.57,0,.85-.07s.56-.07.84-.12l.43-.08.2,0,.11,0,.1,0a17.74,17.74,0,0,0,3.24-1.12l.39-.18.39-.19.38-.2.38-.21.19-.1.18-.1.37-.21.72-.42c1-.56,1.94-1.13,2.91-1.72l.73-.45.72-.46.71-.46.35-.24.35-.23c.94-.6,1.89-1.17,2.88-1.7a25.43,25.43,0,0,1,3-1.41,14.87,14.87,0,0,1,1.59-.54c.27-.08.54-.15.82-.21s.54-.11.82-.15a9.51,9.51,0,0,1,1.68-.13,7.86,7.86,0,0,1,1.67.2,5.44,5.44,0,0,1,.81.25l.2.08.19.08.19.1.19.1a7.11,7.11,0,0,1,1.39,1l.16.15.15.15a2.16,2.16,0,0,1,.27.33,3.38,3.38,0,0,1,.44.73,3.26,3.26,0,0,1,.28,1.62,3.21,3.21,0,0,1-.18.77,2.67,2.67,0,0,1-.37.66l-.11.15-.06.07-.07.07a2.23,2.23,0,0,1-.27.26,3.17,3.17,0,0,1-.62.41,3.39,3.39,0,0,1-.71.28,2.34,2.34,0,0,1-.38.09l-.4,0a3.17,3.17,0,0,1-.81,0,3.18,3.18,0,0,1-1.51-.68,3,3,0,0,1-.58-.61,2.56,2.56,0,0,1-.22-.35,3.39,3.39,0,0,1-.18-.39,6,6,0,0,1-.25-.82,4.62,4.62,0,0,1-.07-1.7,5,5,0,0,1,.53-1.62,5.57,5.57,0,0,1,1-1.37,6,6,0,0,1,1.39-1l.39-.2c.13,0,.26-.11.4-.15a7.79,7.79,0,0,1,.83-.22,8.43,8.43,0,0,1,.86-.11,8.23,8.23,0,0,1,.86,0,4.82,4.82,0,0,1,.85.11,4.63,4.63,0,0,1,.83.23,6.28,6.28,0,0,1,1.52.79,8,8,0,0,1,2.3,2.5,7.69,7.69,0,0,1,.68,1.56,5.74,5.74,0,0,1,.19.82c0,.14,0,.28,0,.42s0,.28,0,.42v.21s0,.07,0,.1v.11a1.49,1.49,0,0,0,0,.21l0,.2a5.68,5.68,0,0,1-.17.82,7.1,7.1,0,0,1-.6,1.51,7.55,7.55,0,0,1-.91,1.3l-.54.57-.15.14-.14.13-.3.25-.16.13-.07.05-.08.06-.32.23a7.23,7.23,0,0,1-.66.4c-.23.13-.46.24-.7.35l-.73.28c-.25.08-.51.16-.76.22l-.19.05-.1,0-.1,0-.11,0h-.09l-.19,0a12.06,12.06,0,0,1-1.59.16,13.8,13.8,0,0,1-3.25-.33,19.72,19.72,0,0,1-3.17-1c-.52-.21-1-.43-1.53-.66l-1.49-.73c-1-.5-2-1-3-1.43s-2-.89-3-1.3-2-.79-3.07-1.13-2-.71-3.09-1a13.26,13.26,0,0,0-3.19-.39,9.42,9.42,0,0,0-1.59.16,6.25,6.25,0,0,0-1.51.51,5.06,5.06,0,0,0-.68.4,3.92,3.92,0,0,0-.32.25l-.3.27a3.52,3.52,0,0,0-.83,1.34,4,4,0,0,0-.21,1.56,5.36,5.36,0,0,0,.33,1.54,5.57,5.57,0,0,0,.76,1.37,4.8,4.8,0,0,0,.51.59,5.78,5.78,0,0,0,.6.51,7,7,0,0,0,1.36.77,8.43,8.43,0,0,0,1.48.45,11.65,11.65,0,0,0,3.06.15,18.54,18.54,0,0,0,3-.5,22.87,22.87,0,0,0,2.84-.9,26.91,26.91,0,0,0,2.68-1.19c.87-.44,1.7-.92,2.51-1.4,1.62-1,3.15-2,4.66-2.94l1.14-.71,1.14-.71,2.22-1.4,4.29-2.73.53-.33.52-.32.51-.31.52-.31.26-.15.26-.15.51-.29c.35-.2.7-.38,1-.56q1-.56,2.07-1c.69-.31,1.39-.6,2.08-.85a21.32,21.32,0,0,1,4.13-1.12,13.12,13.12,0,0,1,4,0,9.05,9.05,0,0,1,3.49,1.3,8,8,0,0,1,2.42,2.47,6.72,6.72,0,0,1,.68,1.47,6.22,6.22,0,0,1,.3,1.51c0,.25,0,.5,0,.74a4.18,4.18,0,0,1-.09.71,5.82,5.82,0,0,1-.42,1.3,5.38,5.38,0,0,1-1.44,1.94,4.94,4.94,0,0,1-1.75,1,4.82,4.82,0,0,1-.87.18,3.22,3.22,0,0,1-.76,0,3.37,3.37,0,0,1-1.22-.42,2,2,0,0,1-.69-.64,1.52,1.52,0,0,1-.22-.55,1.37,1.37,0,0,1,0-.16v-.05Z"/><path class="cls-1" d="M184,202.85h-.24a3.17,3.17,0,0,0-.68.16l-.46.18-.25.11-.28.12-.14.06-.07,0-.08,0-.15.08-.15.08-.64.35-.67.37-.37.19-.38.21-.77.45-.79.5-.8.52-.82.54-.82.55-.83.55L172.9,209l-.82.52-.41.25-.4.25-.2.12-.19.12-.39.24-.75.42c-.25.12-.49.24-.73.34s-.48.21-.71.29l-.67.21-.61.15a4.88,4.88,0,0,1-1,.09,2.88,2.88,0,0,1-.66-.1l-.17-.06-.05,0,0,0,0,0,.16.09a2.52,2.52,0,0,0,.66.24l.49.07a5.9,5.9,0,0,0,.6,0,5.3,5.3,0,0,0,.66-.07c.24,0,.48-.08.73-.14s.51-.14.78-.23a7.17,7.17,0,0,0,.8-.3c.28-.11.55-.24.83-.38l.41-.22.41-.22.42-.24.42-.24.84-.51.43-.26.42-.27.42-.27.42-.28.42-.27.42-.29.82-.57,1.56-1.13.75-.53.37-.25.17-.13.18-.12.35-.23.34-.22q.36-.22.66-.45l.59-.42.13-.09.13-.09.07,0,.07,0,.13-.08.25-.16.24-.14.41-.24.35-.17.26-.09.17,0H184Z"/><path class="cls-1" d="M196,196.63l.28.1.29.11.28.12.28.13.27.14.27.15.27.15.25.16.26.18c.08,0,.16.12.24.18l.24.18.23.2.23.21.22.21.21.22.2.22.2.24.19.24.17.24.17.25.16.26c.05.09.11.17.15.26l.15.27.13.27.12.28.12.28c0,.1.07.19.1.28l.09.29.09.29c0,.1,0,.2.07.3l.06.29.06.3.23,1.28.09-1.31h0a4,4,0,0,1,.23-.87l0-.11,0-.1.05-.11,0-.1.09-.21v0h0l0-.05,0-.11.06-.1a.31.31,0,0,1,.05-.1l.05-.09.06-.1.12-.19.12-.18a1209639906037.77,1209639906037.77,0,0,0,.28-.34l.15-.16.16-.15,0,0,0,0,.08-.07.09-.07h0l.05,0,.17-.12.09-.06.09-.06.19-.1.2-.09.09,0,.11,0,.2-.07.1,0,.11,0,.21-.06.42-.07a5.18,5.18,0,0,1,.88,0,3.88,3.88,0,0,1,.88.16,3.18,3.18,0,0,1,.81.39l.09.06.09.07.09.07.08.07.05,0,0,0,0,0,0,0,0,0,.13.18a2.18,2.18,0,0,1,.28.86,1.61,1.61,0,0,1,0,.44,1.34,1.34,0,0,1-.15.41.81.81,0,0,1-.29.29l-.1.05h0l0,0h-.21a1.17,1.17,0,0,1-.74-.18l-.12-.11-.09-.14a1.59,1.59,0,0,1-.08-.18l-.07-.23h0a.6.6,0,0,0-.19.52.63.63,0,0,0,.1.29,1.15,1.15,0,0,0,.21.23,1.12,1.12,0,0,0,.54.2A1.63,1.63,0,0,0,209,203l.06,0,.07,0,0,0h.06l.06,0,.06,0,.06,0,0,0a1.33,1.33,0,0,0,.35-.4,1.41,1.41,0,0,0,.15-.48,1.68,1.68,0,0,0,0-.5,2.13,2.13,0,0,0,0-.25l-.06-.24a3,3,0,0,0-.19-.46,2.39,2.39,0,0,0-.13-.21.1.1,0,0,0,0-.05l0-.05,0,0,0,0,0-.05-.09-.09a.6.6,0,0,0-.08-.08l-.1-.09-.09-.08a4.23,4.23,0,0,0-.83-.54,3.89,3.89,0,0,0-1-.33l-.5-.08h-.51a3.88,3.88,0,0,0-1,.17,4,4,0,0,0-.94.42,1097637926384.16,1097637926384.16,0,0,0-.22.14,1.28,1.28,0,0,0-.21.16l0,0,0,0h0l-.09.08-.1.09-.05,0,0,.05-.18.18-.16.19-.16.21a1.53,1.53,0,0,0-.14.21l-.13.21-.12.23c0,.07-.07.15-.11.23a.61.61,0,0,1-.05.12l0,.11,0,.11,0,0v.07c0,.08,0,.15-.07.23l0,.12,0,.12,0,.12,0,.12,0,.12,0,.13,0,.24a4.34,4.34,0,0,0,0,.51h0l.32,0-.06-.31-.08-.3-.09-.3-.09-.3c0-.1-.07-.19-.11-.29s-.07-.19-.11-.29-.09-.19-.13-.29-.09-.18-.13-.28l-.15-.27-.15-.27-.16-.27c-.06-.09-.12-.17-.17-.26l-.19-.25-.19-.25-.19-.24-.21-.23-.21-.22-.23-.22-.22-.21-.24-.2-.24-.19-.25-.19-.26-.17-.26-.17-.26-.16-.27-.15-.28-.14-.28-.13-.28-.12-.29-.11-.29-.1-.29-.1Z"/><path class="cls-1" d="M208.17,131.89v0a1.39,1.39,0,0,1,0-.17.82.82,0,0,1,0-.28,1.24,1.24,0,0,1,0-.18,1.6,1.6,0,0,1,.05-.21,2.12,2.12,0,0,1,.66-.92,3.22,3.22,0,0,1,1.4-.68,3.31,3.31,0,0,1,1-.06,4.62,4.62,0,0,1,1,.19,4.66,4.66,0,0,1,2,1.23,6.13,6.13,0,0,1,1.31,2.27c.07.22.13.44.19.67s.1.47.13.71a6,6,0,0,1,.05.74,4.88,4.88,0,0,1,0,.76,7,7,0,0,1-.34,1.53,8,8,0,0,1-.69,1.49,8.71,8.71,0,0,1-2.38,2.59,8.09,8.09,0,0,1-.79.5l-.43.22-.21.1-.22.1a9.89,9.89,0,0,1-1.89.59,13.61,13.61,0,0,1-4.15.2,22.77,22.77,0,0,1-4.35-.86,34,34,0,0,1-4.39-1.64l-1.1-.51-.55-.27-.27-.14-.28-.14-.54-.29-.55-.3-.54-.3-.55-.31-2.18-1.28-1.1-.66-1.11-.67L185,134.48l-1.13-.7-.57-.36-.29-.18-.29-.18c-1.54-1-3-2.06-4.57-3.09-.77-.52-1.55-1-2.35-1.52l-1.21-.7-.63-.33-.07,0-.08,0-.16-.08-.32-.16a23.6,23.6,0,0,0-2.64-1.09,16.63,16.63,0,0,0-2.82-.71,10.2,10.2,0,0,0-2.92,0,7.23,7.23,0,0,0-1.44.36,5.7,5.7,0,0,0-1.32.68,5.14,5.14,0,0,0-2.2,3.8,4.12,4.12,0,0,0,.18,1.52,3.54,3.54,0,0,0,.79,1.31,4.77,4.77,0,0,0,1.26.91,6,6,0,0,0,1.49.51,8.2,8.2,0,0,0,1.57.17,10.73,10.73,0,0,0,1.6-.09,12,12,0,0,0,1.57-.29c1-.26,2.07-.62,3.09-1s2-.75,3-1.17,2-.88,3-1.35,2-1,3-1.5,2-1,3-1.52a30.06,30.06,0,0,1,3.14-1.31,13.32,13.32,0,0,1,3.4-.75,9.74,9.74,0,0,1,1.79,0l.23,0,.12,0h.1l.11,0,.11,0,.23,0c.29.06.59.12.88.21s.58.18.87.3a8.93,8.93,0,0,1,.83.39,8,8,0,0,1,.79.49l.37.28.09.07.09.08.17.14.34.33c.1.11.21.22.31.34a8,8,0,0,1,.56.74,7.43,7.43,0,0,1,.79,1.66,7.84,7.84,0,0,1,.36,1.77c0,.3,0,.6,0,.89v.45a.41.41,0,0,1,0,.11.45.45,0,0,1,0,.11,1.64,1.64,0,0,1,0,.22,8.19,8.19,0,0,1-.4,1.71q-.15.41-.33.81c-.13.26-.27.51-.42.76a7.85,7.85,0,0,1-1,1.38,7.31,7.31,0,0,1-.64.6c-.22.19-.45.36-.69.53a6.79,6.79,0,0,1-1.55.77,5.25,5.25,0,0,1-.84.23,5.16,5.16,0,0,1-.87.1,8.36,8.36,0,0,1-1.73-.14,8.67,8.67,0,0,1-.84-.22l-.41-.16-.39-.19a6.37,6.37,0,0,1-1.41-1,5.69,5.69,0,0,1-1.07-1.37,5.06,5.06,0,0,1-.57-1.65,4.9,4.9,0,0,1,0-1.75,4.31,4.31,0,0,1,.24-.85,3.42,3.42,0,0,1,.17-.4,2.5,2.5,0,0,1,.23-.39,3.41,3.41,0,0,1,.6-.66,4.76,4.76,0,0,1,.73-.51,6,6,0,0,1,.81-.39,4.57,4.57,0,0,1,.9-.23,3.56,3.56,0,0,1,.47-.05l.47,0a3.14,3.14,0,0,1,.94.26,3,3,0,0,1,.82.54,2.82,2.82,0,0,1,.33.36l.08.09.07.11a1.37,1.37,0,0,1,.13.2,3.07,3.07,0,0,1,.33.92,3.38,3.38,0,0,1,0,.95,4.61,4.61,0,0,1-.6,1.69,6.32,6.32,0,0,1-1.09,1.37,7.45,7.45,0,0,1-1.38,1.06,1.18,1.18,0,0,1-.19.11l-.19.11-.2.1-.2.09a7.3,7.3,0,0,1-.82.31,8.4,8.4,0,0,1-1.73.33,10.33,10.33,0,0,1-1.76,0,16.73,16.73,0,0,1-3.45-.6l-.84-.25-.83-.28c-.55-.2-1.09-.41-1.63-.65a28.17,28.17,0,0,1-3.09-1.59l-.37-.22-.36-.23-.72-.45-1.43-.87c-1-.59-1.92-1.18-2.87-1.79l-.71-.46-.7-.46-.69-.43c-.23-.15-.46-.28-.7-.42a19.13,19.13,0,0,0-2.94-1.37l-.1,0-.09,0-.2-.06-.38-.12c-.26-.08-.52-.14-.79-.2a10.69,10.69,0,0,0-1.59-.23c-.27,0-.54,0-.81,0a8.25,8.25,0,0,0-1.6.22,6.82,6.82,0,0,0-.77.23l-.38.15-.36.17-.18.1-.18.09-.17.11-.17.1a2.8,2.8,0,0,0-.33.24,2.47,2.47,0,0,0-.28.28,3.3,3.3,0,0,0-.47.64,3.11,3.11,0,0,0-.3.74,2.12,2.12,0,0,0-.07.79,1.44,1.44,0,0,0,.3.72,1.86,1.86,0,0,0,.29.27l.17.11.08.05.09,0a3.33,3.33,0,0,0,1.55.33,4.87,4.87,0,0,0,1.55-.32,7.45,7.45,0,0,0,1.4-.73,8.4,8.4,0,0,0,1.23-1c.19-.18.37-.37.55-.56l.12-.15.12-.16a1.58,1.58,0,0,0,.12-.15l.12-.16a7,7,0,0,0,.75-1.35,4.68,4.68,0,0,0,.24-.72,4.94,4.94,0,0,0,.14-.75,1.11,1.11,0,0,0,0-.19l0-.19v-.37a4.74,4.74,0,0,0-.06-.75,6.47,6.47,0,0,0-.4-1.43l-.15-.34c0-.11-.1-.22-.16-.33l-.18-.31a3,3,0,0,0-.2-.29,4.91,4.91,0,0,0-2.21-1.69,4.83,4.83,0,0,0-1.35-.32,4.09,4.09,0,0,0-.7,0,4.22,4.22,0,0,0-.7.1,3.15,3.15,0,0,0-1.26.61,1.9,1.9,0,0,0-.45.53,1.47,1.47,0,0,0-.19.67,2.19,2.19,0,0,0,0,.36,1.27,1.27,0,0,0,.13.32,1.14,1.14,0,0,0,.5.47,1,1,0,0,0,.33.09.52.52,0,0,0,.33-.06.22.22,0,0,0,.1-.11.45.45,0,0,0,0-.16,1,1,0,0,0-.11-.33s0,0,0-.08a.18.18,0,0,1-.05-.07,1.36,1.36,0,0,0-.12-.12,1,1,0,0,0-.3-.19,2,2,0,0,0-.69-.16,4.8,4.8,0,0,0-1.41.14,6.81,6.81,0,0,0-1.34.45,7,7,0,0,0-1.19.75,8.34,8.34,0,0,0-1.83,2.06,8.22,8.22,0,0,0-1.08,2.47,7,7,0,0,0-.15,2.6l.06.32v.07s0,.06,0,.08l0,.08a.19.19,0,0,0,0,.07.83.83,0,0,0,0,.15.78.78,0,0,0,.05.14c0,.1.07.19.11.29a5.26,5.26,0,0,0,.58,1.07,6.76,6.76,0,0,0,.76.92,4.61,4.61,0,0,0,.89.72.41.41,0,0,0,.11.07l.06,0,.07,0,.07,0,.06,0,.13.06a5.12,5.12,0,0,0,.53.25,8.36,8.36,0,0,0,1.1.37,7.16,7.16,0,0,0,1.14.21,8.92,8.92,0,0,0,1.16.07h.58l.29,0h.29l.3,0,.28,0,.57-.09.57-.13.56-.15c.37-.12.73-.24,1.08-.39a9.72,9.72,0,0,0,1-.47l.5-.26.25-.13.24-.14.24-.15.23-.15.12-.07.12-.08.23-.15.89-.62c.59-.43,1.15-.88,1.68-1.34s1-.93,1.52-1.41.95-1,1.39-1.45c.89-1,1.71-1.94,2.51-2.86.4-.46.8-.91,1.2-1.34s.79-.85,1.19-1.24a20.91,20.91,0,0,1,2.44-2.08l.31-.22.31-.21.31-.19a2.58,2.58,0,0,1,.32-.18,8,8,0,0,1,1.3-.54,8.3,8.3,0,0,1,2.53-.41,4.77,4.77,0,0,1,1.15.14,3.25,3.25,0,0,1,1,.42,3,3,0,0,1,.74.67.36.36,0,0,1,.07.1l.07.09,0,0,0,0,0,0,0,.05,0,.06a1.46,1.46,0,0,1,.16.44,1.92,1.92,0,0,1,0,.86,1.36,1.36,0,0,1-.41.68l-.07.06-.07.06h0l0,0h0l-.07,0-.3.11-.28,0a.71.71,0,0,1-.29,0l-.16-.06h0l0,0a.1.1,0,0,1-.05,0,.55.55,0,0,1-.14-.18.64.64,0,0,1-.06-.18.76.76,0,0,1,0-.15.31.31,0,0,1,.09-.2l.07,0,0,0a0,0,0,0,0,0,0,.11.11,0,0,0,0,0,.11.11,0,0,0,0,.06l.06.08.08.07a.3.3,0,0,0,.11.06h.09l.15,0,.21-.06.21-.08.05,0h0l0,0,0,0a1,1,0,0,0,.29-.44,1.53,1.53,0,0,0,0-1l0,0a.08.08,0,0,0,0,0v0l0,0a.41.41,0,0,1-.05-.09l-.06-.1a2.1,2.1,0,0,0-.63-.63,2.83,2.83,0,0,0-.92-.4,4.3,4.3,0,0,0-1.1-.15,7.61,7.61,0,0,0-2.46.38,7.93,7.93,0,0,0-1.28.51l-.31.16-.31.2-.31.2-.31.21a21.28,21.28,0,0,0-2.44,2c-.8.78-1.6,1.64-2.4,2.56s-1.63,1.88-2.51,2.86q-.66.74-1.38,1.47l-.74.72-.39.35-.39.36c-.53.46-1.08.92-1.66,1.36-.29.22-.59.44-.9.65l-.23.16-.11.08-.12.07-.23.16-.24.15-.49.29-.24.14-.25.15c-.33.19-.68.37-1,.54s-.71.34-1.07.5-.74.3-1.13.43l-.58.18-.59.15-.16,0-.15,0-.31,0a6.17,6.17,0,0,1-.62.09,9.14,9.14,0,0,1-1.29.06,8.52,8.52,0,0,1-1.31-.16,7.53,7.53,0,0,1-1.28-.39c-.21-.09-.42-.18-.62-.29l-.15-.08-.08,0-.07,0-.06,0-.08-.05a.78.78,0,0,1-.15-.1,5,5,0,0,1-1-.95,6.2,6.2,0,0,1-.78-1.16,6.36,6.36,0,0,1-.5-1.3c0-.11-.05-.23-.07-.34l0-.18,0-.18a.28.28,0,0,0,0-.09v-.08a.31.31,0,0,1,0-.09v-.09c0-.11,0-.23,0-.34a8.57,8.57,0,0,1,.47-2.71,9.9,9.9,0,0,1,.51-1.27,9.55,9.55,0,0,1,.69-1.2,8.71,8.71,0,0,1,1.9-2c.19-.14.38-.28.58-.4l.31-.18a1.82,1.82,0,0,1,.31-.16,6,6,0,0,1,.66-.26c.23-.08.46-.14.69-.2s.47-.09.7-.12a4.34,4.34,0,0,1,.72,0,2.16,2.16,0,0,1,.71.16,1,1,0,0,1,.32.19,1.59,1.59,0,0,1,.13.13l.05.08a.22.22,0,0,1,0,.08.86.86,0,0,1,.12.35.34.34,0,0,1,0,.2.27.27,0,0,1-.13.15.56.56,0,0,1-.38.08,1.12,1.12,0,0,1-.36-.09,1.38,1.38,0,0,1-.57-.5,1.42,1.42,0,0,1-.14-.36,1.58,1.58,0,0,1,0-.38,1.66,1.66,0,0,1,.16-.75,2.24,2.24,0,0,1,.44-.63,3.14,3.14,0,0,1,.6-.49,4.2,4.2,0,0,1,.7-.36,4.08,4.08,0,0,1,1.55-.31,4.54,4.54,0,0,1,1.59.27,5.1,5.1,0,0,1,2.52,2l.21.35a.41.41,0,0,0,0,.09,1,1,0,0,0,0,.1l0,.09,0,.09c.06.12.11.25.16.37s.09.25.12.38a7,7,0,0,1,.3,1.57,6.45,6.45,0,0,1-.59,3.12,8,8,0,0,1-1.89,2.54,9.2,9.2,0,0,1-1.27,1,7.62,7.62,0,0,1-1.43.71,5,5,0,0,1-1.58.31,4.43,4.43,0,0,1-.81-.07,4,4,0,0,1-.76-.26l-.1-.05-.08,0-.18-.11a1.58,1.58,0,0,1-.3-.28,1.4,1.4,0,0,1-.32-.75,2.07,2.07,0,0,1,.05-.82,3.15,3.15,0,0,1,.3-.77,3.39,3.39,0,0,1,.46-.68l.29-.29a2.5,2.5,0,0,1,.33-.26c.23-.16.46-.3.7-.44l.37-.19.38-.18a8.64,8.64,0,0,1,1.59-.5c.27-.06.55-.1.83-.14l.42,0,.42,0c.28,0,.57,0,.85,0s.57,0,.85.06l.84.12.43.08.2,0,.11,0,.1,0a17.74,17.74,0,0,1,3.24,1.12l.39.18.39.19.38.2.38.2.19.11.18.1.37.21.72.42c1,.56,1.94,1.13,2.91,1.72l.73.44.72.46.71.47.35.23.35.23c.94.61,1.89,1.18,2.88,1.71a27.09,27.09,0,0,0,3,1.41q.78.3,1.59.54l.82.2a7.43,7.43,0,0,0,.82.16,10.56,10.56,0,0,0,1.68.13,7.86,7.86,0,0,0,1.67-.2,6.94,6.94,0,0,0,.81-.25l.2-.08.19-.09.19-.09.19-.1a6.76,6.76,0,0,0,1.39-1l.16-.14.15-.15a3.92,3.92,0,0,0,.27-.33,3.63,3.63,0,0,0,.44-.73,3.3,3.3,0,0,0,.28-1.62,3.21,3.21,0,0,0-.18-.77,2.67,2.67,0,0,0-.37-.66l-.11-.15-.06-.07-.07-.07a2.23,2.23,0,0,0-.27-.26,3.17,3.17,0,0,0-.62-.41,3.39,3.39,0,0,0-.71-.28,2.34,2.34,0,0,0-.38-.09,2.57,2.57,0,0,0-.4-.05,3.17,3.17,0,0,0-.81,0,3.25,3.25,0,0,0-2.09,1.29,2.56,2.56,0,0,0-.22.35,2.76,2.76,0,0,0-.18.39,5.83,5.83,0,0,0-.25.81,4.64,4.64,0,0,0-.07,1.7,5,5,0,0,0,.53,1.63,5.71,5.71,0,0,0,1,1.36,6,6,0,0,0,1.39,1l.39.19.4.16a5.93,5.93,0,0,0,.83.21,8.46,8.46,0,0,0,.86.12,8.23,8.23,0,0,0,.86,0,6,6,0,0,0,.85-.11,4.63,4.63,0,0,0,.83-.23,6.65,6.65,0,0,0,1.52-.79,7.9,7.9,0,0,0,2.3-2.51,7.37,7.37,0,0,0,.68-1.55,5.87,5.87,0,0,0,.19-.83c0-.13,0-.27,0-.41s0-.28,0-.42V134s0-.07,0-.11v-.1a1.49,1.49,0,0,1,0-.21l0-.21a5.84,5.84,0,0,0-.17-.81,7.1,7.1,0,0,0-.6-1.51,8,8,0,0,0-.91-1.31l-.54-.57-.15-.13a.86.86,0,0,0-.14-.13l-.3-.25-.16-.13-.07-.06-.08-.06-.32-.22c-.21-.14-.43-.28-.66-.41l-.7-.34c-.24-.1-.49-.2-.73-.28s-.51-.16-.76-.23l-.19,0-.1,0-.1,0-.11,0-.09,0-.19,0a10.58,10.58,0,0,0-1.59-.16,13.29,13.29,0,0,0-3.25.33,19.72,19.72,0,0,0-3.17,1c-.52.2-1,.43-1.53.66l-1.49.73c-1,.49-2,1-3,1.43s-2,.89-3,1.3-2,.78-3.07,1.13-2,.71-3.09,1a12.79,12.79,0,0,1-3.19.4,9.42,9.42,0,0,1-1.59-.16,6.72,6.72,0,0,1-1.51-.51,5.11,5.11,0,0,1-.68-.41,2.43,2.43,0,0,1-.32-.24,3.65,3.65,0,0,1-.3-.27,3.59,3.59,0,0,1-.83-1.34,4,4,0,0,1-.21-1.57,5.37,5.37,0,0,1,.33-1.53,5.18,5.18,0,0,1,1.87-2.47,6.52,6.52,0,0,1,1.36-.77,7.66,7.66,0,0,1,1.48-.45,11.24,11.24,0,0,1,3.06-.15,19.71,19.71,0,0,1,3,.49,25.94,25.94,0,0,1,5.52,2.1c.87.44,1.7.91,2.51,1.4,1.62,1,3.15,2,4.66,2.94l1.14.71,1.14.7,2.22,1.41,4.29,2.72.53.33.52.33.51.31.52.31.26.15.26.15.51.29,1,.56c.69.36,1.38.7,2.07,1s1.39.61,2.08.86a21.28,21.28,0,0,0,4.13,1.11,12.81,12.81,0,0,0,4,0,8.74,8.74,0,0,0,3.49-1.3,8,8,0,0,0,2.42-2.46,6.72,6.72,0,0,0,.68-1.47,6.41,6.41,0,0,0,.3-1.51c0-.25,0-.5,0-.74a4.17,4.17,0,0,0-.09-.72,6,6,0,0,0-.42-1.3,5.47,5.47,0,0,0-1.44-1.94,4.94,4.94,0,0,0-1.75-1,7.49,7.49,0,0,0-.87-.18,2.77,2.77,0,0,0-.76,0,3.19,3.19,0,0,0-1.22.41,2.16,2.16,0,0,0-.69.64,1.63,1.63,0,0,0-.22.56c0,.07,0,.12,0,.15v.06Z"/><path class="cls-1" d="M184,136.45h-.24a2.56,2.56,0,0,1-.68-.15l-.46-.18-.25-.11-.28-.12-.14-.06-.07,0-.08,0-.15-.08-.15-.08-.64-.35-.67-.37-.37-.2a3.59,3.59,0,0,1-.38-.21l-.77-.45-.79-.49L177,133l-.82-.54-.82-.55-.83-.54-1.67-1.08-.82-.52-.41-.26-.4-.24-.2-.13-.19-.12-.39-.23q-.37-.22-.75-.42c-.25-.13-.49-.24-.73-.35s-.48-.2-.71-.28-.45-.16-.67-.22a4.84,4.84,0,0,0-.61-.14,4.27,4.27,0,0,0-1-.09,2.88,2.88,0,0,0-.66.1l-.17.06-.05,0,0,0,0,0,.16-.09a2.2,2.2,0,0,1,.66-.24,3.2,3.2,0,0,1,.49-.07,4,4,0,0,1,.6,0,5.3,5.3,0,0,1,.66.07,6.68,6.68,0,0,1,.73.14c.25.06.51.13.78.22l.8.3c.28.12.55.24.83.39l.41.22.41.22.42.24.42.24.84.5.43.27.42.26.42.27.42.28.42.28.42.28.82.57,1.56,1.13.75.54.37.25.17.12.18.12.35.23.34.23q.36.22.66.45l.59.41.13.1.13.09.07,0,.07,0,.13.08.25.15.24.15.41.24a2.6,2.6,0,0,0,.35.16,1.49,1.49,0,0,0,.26.1l.17,0H184Z"/><path class="cls-1" d="M196,142.67l.28-.11.29-.11.28-.12.28-.12.27-.14.27-.15.27-.15.25-.17.26-.17.24-.18.24-.19.23-.19.23-.21.22-.21.21-.22.2-.23.2-.23.19-.24.17-.24.17-.26c.06-.08.11-.17.16-.25s.11-.18.15-.27l.15-.26c0-.1.09-.18.13-.28l.12-.27.12-.28c0-.1.07-.19.1-.29l.09-.29.09-.29c0-.09,0-.19.07-.29L202,136l.06-.3.23-1.29.09,1.32h0a4,4,0,0,0,.23.87l0,.1,0,.11.05.11,0,.1.09.21v0h0l0,.06,0,.1.06.11.05.1.05.09.06.1.12.18.12.18.14.18.14.16.15.16.16.15,0,0,0,0,.08.07.09.07h0s0,0,0,0h0l0,0,.05,0,.17.12.09.06.09.05.19.11.2.09.09,0,.11,0,.2.07.1,0,.11,0,.21,0,.42.08a5.18,5.18,0,0,0,.88,0,3.4,3.4,0,0,0,.88-.16,2.85,2.85,0,0,0,.81-.38l.09-.06.09-.07.09-.07.08-.07.05-.05,0,0,0,0,0,0,0-.05.13-.18a2.08,2.08,0,0,0,.28-.85,1.7,1.7,0,0,0,0-.45,1.38,1.38,0,0,0-.15-.4.74.74,0,0,0-.29-.29.31.31,0,0,0-.1-.05l0,0h-.26a1.11,1.11,0,0,0-.74.18l-.12.11L208,137c0,.06-.05.12-.08.19l-.07.23h0a.62.62,0,0,1-.19-.52.63.63,0,0,1,.1-.29.93.93,0,0,1,.21-.23,1.12,1.12,0,0,1,.54-.2,1.41,1.41,0,0,1,.54.06l.06,0,.07,0,0,0,0,0h0l.06,0,.06,0,.06,0,0,0a1.13,1.13,0,0,1,.35.4,1.41,1.41,0,0,1,.15.48,1.68,1.68,0,0,1,0,.5,2,2,0,0,1,0,.24l-.06.24a2.34,2.34,0,0,1-.19.46,1.59,1.59,0,0,1-.13.22l0,.05,0,0,0,0,0,0,0,0-.09.09-.08.09-.1.08-.09.08a3.86,3.86,0,0,1-.83.55,4.94,4.94,0,0,1-1,.33,4,4,0,0,1-.5.07h-.51a4.36,4.36,0,0,1-1-.17,4,4,0,0,1-.94-.42l-.11-.07-.11-.07a2.26,2.26,0,0,1-.21-.16l0,0h-.05l-.09-.09-.1-.08-.05,0,0,0-.18-.18-.16-.2a1.56,1.56,0,0,1-.16-.2c-.05-.07-.1-.14-.14-.21s-.09-.14-.13-.22l-.12-.22c0-.08-.07-.16-.11-.23a.61.61,0,0,0-.05-.12l0-.11,0-.11,0-.06v0h0v0c0-.08,0-.16-.07-.24l0-.11,0-.12,0-.12,0-.12,0-.13,0-.12,0-.25a4.17,4.17,0,0,1,0-.5h0l.32,0-.06.3-.08.31-.09.3-.09.29c0,.1-.07.2-.11.3s-.07.19-.11.29l-.13.28c0,.1-.09.19-.13.28l-.15.28-.15.27-.16.27a2.33,2.33,0,0,0-.17.26l-.19.25-.19.24-.19.24-.21.24-.21.22-.23.22-.22.21-.24.2-.24.19-.25.18-.26.18-.26.17-.26.15c-.09.05-.18.11-.27.15l-.28.14-.28.13-.28.12-.29.12-.29.1-.29.09Z"/><path class="cls-1" d="M91.83,131.89v0a1.39,1.39,0,0,0,0-.17,1.19,1.19,0,0,0,0-.28,1.24,1.24,0,0,0,0-.18,1.6,1.6,0,0,0,0-.21,2.12,2.12,0,0,0-.66-.92,3.22,3.22,0,0,0-1.4-.68,3.31,3.31,0,0,0-1-.06,4.62,4.62,0,0,0-1,.19,4.66,4.66,0,0,0-2,1.23A6.13,6.13,0,0,0,84.51,133c-.07.22-.13.44-.19.67s-.1.47-.13.71a6,6,0,0,0,0,.74,4.88,4.88,0,0,0,0,.76,7,7,0,0,0,.34,1.53,8,8,0,0,0,.69,1.49,8.71,8.71,0,0,0,2.38,2.59,8.09,8.09,0,0,0,.79.5l.43.22.21.1.22.1a9.89,9.89,0,0,0,1.89.59,13.61,13.61,0,0,0,4.15.2,22.77,22.77,0,0,0,4.35-.86,34,34,0,0,0,4.39-1.64l1.1-.51.55-.27.27-.14.28-.14.54-.29.55-.3.54-.3.55-.31,2.18-1.28,1.1-.66,1.11-.67,2.24-1.38,1.13-.7.57-.36.29-.18.29-.18c1.54-1,3-2.06,4.57-3.09.77-.52,1.55-1,2.35-1.52l1.21-.7.63-.33.07,0,.08,0,.16-.08.32-.16a23.6,23.6,0,0,1,2.64-1.09,16.63,16.63,0,0,1,2.82-.71,10.2,10.2,0,0,1,2.92,0,7.23,7.23,0,0,1,1.44.36,5.7,5.7,0,0,1,1.32.68,5.14,5.14,0,0,1,2.2,3.8,3.92,3.92,0,0,1-.18,1.52,3.54,3.54,0,0,1-.79,1.31,4.77,4.77,0,0,1-1.26.91,6,6,0,0,1-1.49.51,8.2,8.2,0,0,1-1.57.17,10.73,10.73,0,0,1-1.6-.09,12,12,0,0,1-1.57-.29c-1-.26-2.06-.62-3.09-1s-2-.75-3-1.17-2-.88-3-1.35-2-1-3-1.5-2-1-3-1.52a30.06,30.06,0,0,0-3.14-1.31,13.32,13.32,0,0,0-3.4-.75,9.74,9.74,0,0,0-1.79,0l-.23,0-.12,0h-.1l-.11,0-.11,0-.23,0c-.29.06-.59.12-.88.21s-.58.18-.87.3a8.93,8.93,0,0,0-.83.39,8,8,0,0,0-.79.49l-.37.28-.09.07-.09.08-.17.14-.34.33c-.1.11-.21.22-.31.34a8,8,0,0,0-.56.74,7.43,7.43,0,0,0-.79,1.66,7.84,7.84,0,0,0-.36,1.77c0,.3,0,.6,0,.89v.45a.41.41,0,0,0,0,.11.45.45,0,0,0,0,.11,1.64,1.64,0,0,0,0,.22,8.19,8.19,0,0,0,.4,1.71q.15.41.33.81c.13.26.27.51.42.76a7.85,7.85,0,0,0,1.05,1.38,7.31,7.31,0,0,0,.64.6c.22.19.45.36.69.53a6.79,6.79,0,0,0,1.55.77,5.25,5.25,0,0,0,.84.23,5.16,5.16,0,0,0,.87.1,8.36,8.36,0,0,0,1.73-.14,8.67,8.67,0,0,0,.84-.22l.4-.16.4-.19a6.37,6.37,0,0,0,1.41-1,5.69,5.69,0,0,0,1.07-1.37,5.06,5.06,0,0,0,.57-1.65,4.92,4.92,0,0,0-.28-2.6,3.42,3.42,0,0,0-.17-.4,2.5,2.5,0,0,0-.23-.39,3.41,3.41,0,0,0-.6-.66,4.76,4.76,0,0,0-.73-.51,6,6,0,0,0-.81-.39,4.57,4.57,0,0,0-.9-.23,3.56,3.56,0,0,0-.47-.05l-.47,0a3.14,3.14,0,0,0-.94.26,3,3,0,0,0-.82.54,2.82,2.82,0,0,0-.33.36l-.08.09-.07.11a1.37,1.37,0,0,0-.13.2,3.07,3.07,0,0,0-.33.92,3.38,3.38,0,0,0,0,.95,4.61,4.61,0,0,0,.6,1.69,6.32,6.32,0,0,0,1.09,1.37,7.45,7.45,0,0,0,1.38,1.06,1.18,1.18,0,0,0,.19.11l.19.11.2.1.2.09a7.3,7.3,0,0,0,.82.31,8.4,8.4,0,0,0,1.73.33,10.33,10.33,0,0,0,1.76,0,16.73,16.73,0,0,0,3.45-.6l.85-.25.82-.28c.55-.2,1.09-.41,1.63-.65a28.17,28.17,0,0,0,3.09-1.59l.37-.22.36-.23.72-.45,1.43-.87c1-.59,1.92-1.18,2.87-1.79l.71-.46.7-.46.69-.43c.23-.15.46-.28.7-.42a19.13,19.13,0,0,1,2.94-1.37l.1,0,.09,0,.2-.06.38-.12c.26-.08.52-.14.79-.2a10.69,10.69,0,0,1,1.59-.23c.27,0,.54,0,.81,0a8.25,8.25,0,0,1,1.6.22,6.82,6.82,0,0,1,.77.23l.38.15.36.17.18.1.18.09.17.11.17.1a2.8,2.8,0,0,1,.33.24,2.47,2.47,0,0,1,.28.28,3.3,3.3,0,0,1,.47.64,3.11,3.11,0,0,1,.3.74,2.12,2.12,0,0,1,.07.79,1.44,1.44,0,0,1-.3.72,1.86,1.86,0,0,1-.29.27l-.17.11-.08.05-.09,0a3.33,3.33,0,0,1-1.55.33,4.87,4.87,0,0,1-1.55-.32,7.45,7.45,0,0,1-1.4-.73,8.4,8.4,0,0,1-1.23-1c-.19-.18-.37-.37-.55-.56l-.12-.15-.12-.16a1.58,1.58,0,0,1-.12-.15l-.12-.16a7,7,0,0,1-.75-1.35,4.68,4.68,0,0,1-.24-.72,4.94,4.94,0,0,1-.14-.75,1.11,1.11,0,0,1,0-.19l0-.19v-.37a4.74,4.74,0,0,1,.06-.75,6.47,6.47,0,0,1,.4-1.43l.15-.34c0-.11.1-.22.16-.33l.18-.31a3,3,0,0,1,.2-.29,4.91,4.91,0,0,1,2.21-1.69,4.83,4.83,0,0,1,1.35-.32,4.09,4.09,0,0,1,.7,0,4.22,4.22,0,0,1,.7.1,3.15,3.15,0,0,1,1.26.61,1.9,1.9,0,0,1,.45.53,1.47,1.47,0,0,1,.19.67,2.19,2.19,0,0,1,0,.36,1.27,1.27,0,0,1-.13.32,1.14,1.14,0,0,1-.5.47,1,1,0,0,1-.33.09.52.52,0,0,1-.33-.06.22.22,0,0,1-.1-.11.45.45,0,0,1,0-.16,1,1,0,0,1,.11-.33s0,0,0-.08a.18.18,0,0,0,.05-.07,1.36,1.36,0,0,1,.12-.12,1,1,0,0,1,.3-.19,2,2,0,0,1,.69-.16,4.8,4.8,0,0,1,1.41.14,6.6,6.6,0,0,1,1.34.45,7,7,0,0,1,1.19.75,8.34,8.34,0,0,1,1.83,2.06,8.22,8.22,0,0,1,1.08,2.47,7,7,0,0,1,.15,2.6l-.06.32v.07s0,.06,0,.08l0,.08a.19.19,0,0,1,0,.07.83.83,0,0,1,0,.15.78.78,0,0,1-.05.14c0,.1-.07.19-.11.29a5.26,5.26,0,0,1-.58,1.07,6.76,6.76,0,0,1-.76.92,4.61,4.61,0,0,1-.89.72.41.41,0,0,1-.11.07l-.06,0-.07,0-.07,0-.06,0-.13.06a5.12,5.12,0,0,1-.53.25,8.36,8.36,0,0,1-1.1.37,7.16,7.16,0,0,1-1.14.21,8.92,8.92,0,0,1-1.16.07h-.58l-.29,0h-.29l-.3,0-.28,0-.57-.09-.57-.13-.56-.15c-.37-.12-.73-.24-1.08-.39a9.72,9.72,0,0,1-1-.47l-.5-.26-.25-.13-.24-.14-.24-.15-.23-.15-.12-.07-.12-.08-.23-.15-.89-.62c-.59-.43-1.15-.88-1.68-1.34s-1-.93-1.52-1.41-.95-1-1.39-1.45c-.89-1-1.71-1.94-2.51-2.86-.4-.46-.8-.91-1.2-1.34s-.79-.85-1.19-1.24a20.91,20.91,0,0,0-2.44-2.08l-.31-.22-.31-.21-.31-.19a2.58,2.58,0,0,0-.32-.18,8,8,0,0,0-1.3-.54,8.3,8.3,0,0,0-2.53-.41,4.83,4.83,0,0,0-1.15.14,3.25,3.25,0,0,0-1,.42,3.19,3.19,0,0,0-.74.67.36.36,0,0,0-.07.1l-.07.09,0,0,0,0,0,0,0,.05,0,.06a1.46,1.46,0,0,0-.16.44,1.92,1.92,0,0,0,0,.86,1.36,1.36,0,0,0,.41.68l.07.06.07.06h0l0,0h0l.07,0,.3.11.28,0a.71.71,0,0,0,.29,0l.16-.06h0l0,0a.1.1,0,0,0,0,0,.55.55,0,0,0,.14-.18.64.64,0,0,0,.06-.18.76.76,0,0,0,0-.15.31.31,0,0,0-.09-.2l-.07,0,0,0a0,0,0,0,1,0,0,.11.11,0,0,1,0,0,.11.11,0,0,1,0,.06l-.06.08-.08.07a.24.24,0,0,1-.11.06h-.09l-.15,0-.21-.06-.21-.08-.05,0h0s0,0,0,0l-.05,0a1,1,0,0,1-.29-.44,1.74,1.74,0,0,1-.08-.66,1.55,1.55,0,0,1,.08-.36l0,0a.08.08,0,0,1,0,0v0l0,0a.41.41,0,0,0,0-.09l.06-.1a2.1,2.1,0,0,1,.63-.63,2.83,2.83,0,0,1,.92-.4,4.3,4.3,0,0,1,1.1-.15,8.58,8.58,0,0,1,3.74.89l.31.16.31.2.31.2.31.21a21.28,21.28,0,0,1,2.44,2c.8.78,1.6,1.64,2.4,2.56s1.63,1.88,2.51,2.86q.66.74,1.38,1.47l.74.72.39.35.39.36c.53.46,1.08.92,1.66,1.36.29.22.59.44.9.65l.23.16.11.08.12.07.23.16.24.15.49.29.24.14.25.15c.33.19.68.37,1,.54s.71.34,1.07.5.74.3,1.13.43l.58.18.59.15.16,0,.15,0,.31,0a6.17,6.17,0,0,0,.62.09,9.14,9.14,0,0,0,1.29.06,8.52,8.52,0,0,0,1.31-.16,7.53,7.53,0,0,0,1.28-.39c.21-.09.42-.18.62-.29l.15-.08.08,0,.07,0,.06,0,.08-.05.16-.1a5.23,5.23,0,0,0,1-.95,6.2,6.2,0,0,0,.78-1.16,6.36,6.36,0,0,0,.5-1.3c0-.11.05-.23.07-.34l0-.18,0-.18a.28.28,0,0,1,0-.09v-.08a.31.31,0,0,0,0-.09v-.09c0-.11,0-.23,0-.34a8.57,8.57,0,0,0-.47-2.71,9.9,9.9,0,0,0-.51-1.27,9.55,9.55,0,0,0-.69-1.2,8.71,8.71,0,0,0-1.9-2c-.19-.14-.38-.28-.58-.4l-.31-.18a1.82,1.82,0,0,0-.31-.16,6,6,0,0,0-.66-.26c-.23-.08-.46-.14-.69-.2s-.47-.09-.7-.12a4.34,4.34,0,0,0-.72,0,2.16,2.16,0,0,0-.71.16,1,1,0,0,0-.32.19,1.59,1.59,0,0,0-.13.13l-.05.08a.22.22,0,0,0,0,.08.86.86,0,0,0-.12.35.34.34,0,0,0,0,.2.27.27,0,0,0,.13.15.56.56,0,0,0,.38.08,1.12,1.12,0,0,0,.36-.09,1.38,1.38,0,0,0,.57-.5,1.42,1.42,0,0,0,.14-.36,1.58,1.58,0,0,0,0-.38,1.66,1.66,0,0,0-.16-.75,2.24,2.24,0,0,0-.44-.63,3.14,3.14,0,0,0-.6-.49,4.2,4.2,0,0,0-.7-.36,4.08,4.08,0,0,0-1.55-.31,4.54,4.54,0,0,0-1.59.27,5.1,5.1,0,0,0-2.52,2l-.21.35a.41.41,0,0,1,0,.09,1,1,0,0,1,0,.1l0,.09,0,.09c-.06.12-.11.25-.16.37s-.09.25-.12.38a6.4,6.4,0,0,0,.29,4.69,8,8,0,0,0,1.89,2.54,9.2,9.2,0,0,0,1.27,1,7.62,7.62,0,0,0,1.43.71,5,5,0,0,0,1.58.31,4.43,4.43,0,0,0,.81-.07,4,4,0,0,0,.76-.26l.1-.05.08,0,.18-.11a1.58,1.58,0,0,0,.3-.28,1.4,1.4,0,0,0,.32-.75,2.07,2.07,0,0,0-.05-.82,3.58,3.58,0,0,0-.29-.77,3.93,3.93,0,0,0-.47-.68l-.29-.29a2.5,2.5,0,0,0-.33-.26c-.23-.16-.46-.3-.7-.44l-.37-.19-.38-.18a8.41,8.41,0,0,0-1.59-.5c-.27-.06-.55-.1-.83-.14l-.42,0-.42,0c-.28,0-.57,0-.85,0s-.57,0-.85.06l-.84.12-.43.08-.2,0-.11,0-.1,0a17.74,17.74,0,0,0-3.24,1.12l-.39.18-.39.19-.38.2-.38.2L131,131l-.18.1-.37.21-.72.42c-1,.56-1.94,1.13-2.91,1.72l-.73.44-.72.46-.71.47-.35.23-.35.23c-.94.61-1.89,1.18-2.88,1.71a27.09,27.09,0,0,1-3,1.41q-.78.3-1.59.54l-.82.2a7.43,7.43,0,0,1-.82.16,10.56,10.56,0,0,1-1.68.13,7.86,7.86,0,0,1-1.67-.2,6.94,6.94,0,0,1-.81-.25l-.2-.08-.19-.09-.19-.09-.19-.1a6.76,6.76,0,0,1-1.39-1l-.16-.14-.15-.15a3.92,3.92,0,0,1-.27-.33,3.63,3.63,0,0,1-.44-.73,3.3,3.3,0,0,1-.28-1.62,3.21,3.21,0,0,1,.18-.77,2.67,2.67,0,0,1,.37-.66l.11-.15.06-.07.07-.07a2.23,2.23,0,0,1,.27-.26,3.17,3.17,0,0,1,.62-.41,3.39,3.39,0,0,1,.71-.28,2.34,2.34,0,0,1,.38-.09,2.57,2.57,0,0,1,.4-.05,3.17,3.17,0,0,1,.81,0,3.25,3.25,0,0,1,2.09,1.29,2.56,2.56,0,0,1,.22.35,2.76,2.76,0,0,1,.18.39,4.73,4.73,0,0,1,.25.81,4.64,4.64,0,0,1,.07,1.7,5,5,0,0,1-.53,1.63,5.71,5.71,0,0,1-1,1.36,6,6,0,0,1-1.39,1l-.39.19-.4.16a5.93,5.93,0,0,1-.83.21,8.46,8.46,0,0,1-.86.12,8.23,8.23,0,0,1-.86,0,6,6,0,0,1-.85-.11,4.63,4.63,0,0,1-.83-.23,6.65,6.65,0,0,1-1.52-.79,7.9,7.9,0,0,1-2.3-2.51,7.37,7.37,0,0,1-.68-1.55,5.87,5.87,0,0,1-.19-.83c0-.13,0-.27-.05-.41s0-.28,0-.42V134s0-.07,0-.11v-.1a1.49,1.49,0,0,0,0-.21l0-.21a7.78,7.78,0,0,1,.17-.81,7.1,7.1,0,0,1,.6-1.51,8,8,0,0,1,.91-1.31c.18-.19.36-.39.54-.57l.15-.13a.86.86,0,0,1,.14-.13l.3-.25.16-.13.07-.06.08-.06.32-.22c.21-.14.43-.28.66-.41l.7-.34c.24-.1.49-.2.73-.28s.51-.16.76-.23l.19,0,.1,0,.1,0,.11,0,.09,0,.19,0a10.58,10.58,0,0,1,1.59-.16,13.29,13.29,0,0,1,3.25.33,19.72,19.72,0,0,1,3.17,1c.52.2,1,.43,1.53.66l1.49.73c1,.49,2,1,3,1.43s2,.89,3,1.3,2,.78,3.07,1.13,2,.71,3.09,1a12.79,12.79,0,0,0,3.19.4,9.42,9.42,0,0,0,1.59-.16,6.72,6.72,0,0,0,1.51-.51,5.11,5.11,0,0,0,.68-.41,2.43,2.43,0,0,0,.32-.24,3.65,3.65,0,0,0,.3-.27,3.59,3.59,0,0,0,.83-1.34,4,4,0,0,0,.21-1.57,5.37,5.37,0,0,0-.33-1.53,5.18,5.18,0,0,0-1.87-2.47,6.52,6.52,0,0,0-1.36-.77,7.66,7.66,0,0,0-1.48-.45,11.24,11.24,0,0,0-3.06-.15,19.71,19.71,0,0,0-3,.49,25.94,25.94,0,0,0-5.52,2.1c-.87.44-1.7.91-2.51,1.4-1.62,1-3.15,2-4.66,2.94l-1.14.71-1.14.7-2.22,1.41-4.29,2.72-.53.33-.52.33-.51.31-.52.31-.26.15-.26.15-.51.29-1,.56c-.69.36-1.38.7-2.07,1s-1.39.61-2.08.86a21.28,21.28,0,0,1-4.13,1.11,12.81,12.81,0,0,1-4,0,8.74,8.74,0,0,1-3.49-1.3,8,8,0,0,1-2.42-2.46,6.72,6.72,0,0,1-.68-1.47,6.41,6.41,0,0,1-.3-1.51c0-.25,0-.5,0-.74a4.17,4.17,0,0,1,.09-.72,6,6,0,0,1,.42-1.3,5.59,5.59,0,0,1,1.44-1.94,4.94,4.94,0,0,1,1.75-1,7.49,7.49,0,0,1,.87-.18,2.77,2.77,0,0,1,.76,0,3.19,3.19,0,0,1,1.22.41,2.16,2.16,0,0,1,.69.64,1.63,1.63,0,0,1,.22.56c0,.07,0,.12,0,.15v.06Z"/><path class="cls-1" d="M116,136.45h.24a2.56,2.56,0,0,0,.68-.15l.46-.18.25-.11.28-.12.14-.06.07,0,.08,0,.15-.08.15-.08.64-.35.67-.37.37-.2a3.59,3.59,0,0,0,.38-.21l.77-.45.79-.49.8-.53.82-.54.82-.55.84-.54c.55-.37,1.11-.73,1.66-1.08l.82-.52.41-.26.4-.24.2-.13.19-.12.39-.23q.38-.22.75-.42c.25-.13.49-.24.73-.35s.48-.2.71-.28.45-.16.67-.22a4.84,4.84,0,0,1,.61-.14,4.27,4.27,0,0,1,1-.09,2.88,2.88,0,0,1,.66.1l.17.06.05,0,0,0,0,0-.16-.09a2.2,2.2,0,0,0-.66-.24,3.2,3.2,0,0,0-.49-.07,4,4,0,0,0-.6,0,5.3,5.3,0,0,0-.66.07,6.68,6.68,0,0,0-.73.14c-.25.06-.51.13-.78.22l-.8.3c-.28.12-.55.24-.83.39l-.41.22-.41.22-.42.24-.42.24-.84.5-.42.27c-.15.08-.29.17-.43.26l-.42.27-.42.28-.42.28-.42.28-.82.57-1.56,1.13-.75.54-.37.25-.17.12-.18.12-.35.23-.34.23q-.36.22-.66.45l-.59.41-.13.1-.13.09-.07,0-.07,0-.13.08-.25.15-.24.15-.41.24a2.6,2.6,0,0,1-.35.16,1.49,1.49,0,0,1-.26.1l-.17,0H116Z"/><path class="cls-1" d="M104,142.67l-.29-.11-.29-.11-.28-.12-.28-.12-.27-.14-.27-.15-.26-.15-.26-.17-.26-.17-.24-.18-.24-.19-.23-.19-.23-.21-.22-.21-.21-.22L100,140l-.2-.23-.19-.24-.17-.24-.17-.26c-.06-.08-.11-.17-.16-.25s-.11-.18-.15-.27l-.15-.26c0-.1-.09-.18-.13-.28l-.12-.27-.12-.28c0-.1-.07-.19-.1-.29l-.09-.29-.09-.29c0-.09,0-.19-.07-.29L98,136l-.06-.3-.23-1.29-.09,1.32h0a4,4,0,0,1-.23.87l0,.1,0,.11,0,.11,0,.1-.09.21v0h0l0,.06,0,.1-.06.11a.93.93,0,0,1,0,.1l0,.09-.06.1-.12.18-.12.18-.14.18-.14.16-.15.16-.16.15,0,0,0,0-.08.07-.09.07h0s0,0,0,0h0l0,0,0,0-.17.12-.09.06-.09.05-.19.11-.2.09-.09,0-.1,0-.21.07-.1,0-.11,0-.21,0-.42.08a5.18,5.18,0,0,1-.88,0,3.26,3.26,0,0,1-.87-.16,2.78,2.78,0,0,1-.82-.38l-.09-.06-.09-.07-.09-.07-.08-.07,0-.05,0,0,0,0,0,0,0-.05-.13-.18a2.08,2.08,0,0,1-.28-.85,1.7,1.7,0,0,1,0-.45,1.38,1.38,0,0,1,.15-.4.74.74,0,0,1,.29-.29.31.31,0,0,1,.1-.05l0,0h.26a1.11,1.11,0,0,1,.74.18l.12.11L92,137c0,.06,0,.12.08.19l.07.23h0a.62.62,0,0,0,.19-.52.63.63,0,0,0-.1-.29.93.93,0,0,0-.21-.23,1.12,1.12,0,0,0-.54-.2,1.41,1.41,0,0,0-.54.06l-.06,0-.06,0-.06,0,0,0h0l-.06,0-.06,0-.06,0,0,0a1.13,1.13,0,0,0-.35.4,1.41,1.41,0,0,0-.15.48,1.68,1.68,0,0,0,0,.5l0,.24.06.24a2.34,2.34,0,0,0,.19.46,1.59,1.59,0,0,0,.13.22l0,.05,0,0,0,0,0,0,0,0,.09.09.08.09.1.08.09.08a3.86,3.86,0,0,0,.83.55,4.94,4.94,0,0,0,1,.33,4,4,0,0,0,.5.07h.51a4.36,4.36,0,0,0,1-.17,4,4,0,0,0,.94-.42l.11-.07.11-.07.21-.16,0,0h0l.09-.09.1-.08,0,0,0,0,.18-.18.16-.2a1.56,1.56,0,0,0,.16-.2c0-.07.1-.14.14-.21s.09-.14.13-.22l.12-.22c0-.08.07-.16.11-.23a.61.61,0,0,1,0-.12l0-.11,0-.11,0-.06v0h0v0c0-.08.05-.16.07-.24l0-.11,0-.12,0-.12,0-.12,0-.13,0-.12,0-.25a2.78,2.78,0,0,0,0-.5h0l-.32,0,.07.3.07.31.09.3.09.29c0,.1.07.2.11.3s.07.19.11.29l.13.28c0,.1.09.19.13.28l.15.28.15.27.16.27.18.26.18.25.19.24.19.24.21.24.21.22.23.22.22.21.24.2.24.19.25.18.26.18.26.17.26.15c.09.05.18.11.27.15l.28.14.28.13.28.12.29.12.29.1.29.09Z"/><path class="cls-2" d="M24.85,179.78l-.26-.62a7,7,0,0,0,1.23-3.8c.53-5.37.8-11.81.8-17.18a63.48,63.48,0,0,0-.35-7.63,10.35,10.35,0,0,1-2.52-.82l0-.87c3.8,0,9.63-.52,13.43-.52,4,0,7.28,1.34,7.28,5.66,0,3.84-2.43,6.63-5.65,8.21v.19c4.15,0,7.11,1.83,7.11,6.34,0,6-7.46,10.32-12.76,12.1l-1.41-.39a25.79,25.79,0,0,0-5-.86A8.57,8.57,0,0,0,24.85,179.78Zm8.84-28.37c-.4,5.47-.62,13.68-.62,19.49,0,1.49,0,3.07.08,5.09a4,4,0,0,0,2.17.62,4.2,4.2,0,0,0,2.47-.77,20.2,20.2,0,0,0,.71-5.23c0-4.42-.44-7.06-4.51-7.06l.18-1.77a5,5,0,0,0,1.77-.43,15.82,15.82,0,0,0,1.19-5.91c0-2.06-.09-4.32-2-4.32A3.91,3.91,0,0,0,33.69,151.41Z"/><path class="cls-2" d="M56.6,162.93a121.13,121.13,0,0,0-.57,13c1.5-2.07,2.43-5.23,3.13-7.73l.71.19c-.71,4.27-2,10-5.25,12.44-3.8,0-5.21-1.88-5.21-6,0-4.61,1-12,.48-16.57a13.44,13.44,0,0,1-2.69-.81v-.87a55.37,55.37,0,0,0,10.37-.72l.31.63A21.22,21.22,0,0,0,56.6,162.93Zm1.11-13.78a15,15,0,0,0-3.4-3.93,12.44,12.44,0,0,0-4.11,3.93,16.24,16.24,0,0,0,3.31,4.9A22.3,22.3,0,0,0,57.71,149.15Z"/><path class="cls-2" d="M69.67,176.23a28.56,28.56,0,0,0,.36,3.89,33.25,33.25,0,0,0-7.24.72l-.27-.24c.31-1.16.88-4.85.88-12.29,0-2.84-.08-7.59-.39-10a13.73,13.73,0,0,1-2.7-.81v-.87a53.26,53.26,0,0,0,10.16-.72l.31.63a22.47,22.47,0,0,0-1.06,7.58c-.22,1.35-.49,2.55-.8,3.84l.71.05c.8-4.08,2.61-9.74,5.92-12.1a11.18,11.18,0,0,0,3.93.92l.26.72c-1.41,2-2.29,6.14-2.43,8.68h-.79c-.22-.81-.35-1.58-.49-2.4a8.61,8.61,0,0,0-2.43-2.59C71.53,164.42,69.67,172.34,69.67,176.23Z"/><path class="cls-2" d="M88.22,162.93a118.6,118.6,0,0,0-.57,13c1.5-2.07,2.43-5.23,3.13-7.73l.71.19c-.71,4.27-2,10-5.26,12.44-3.79,0-5.21-1.88-5.21-6,0-4.61,1-12,.49-16.57a13.73,13.73,0,0,1-2.7-.81v-.87a55.47,55.47,0,0,0,10.38-.72l.31.63A21.22,21.22,0,0,0,88.22,162.93Zm1.1-13.78a14.78,14.78,0,0,0-3.4-3.93,12.31,12.31,0,0,0-4.1,3.93,16.06,16.06,0,0,0,3.31,4.9A22.25,22.25,0,0,0,89.32,149.15Z"/><path class="cls-2" d="M113.39,183.24a22.61,22.61,0,0,0-5.78,7.2l-1.37-.72c-2.87-1.54-7.64-3.08-10.82-3.08a7.4,7.4,0,0,0-6,2.84l-.71-.53c2.34-3.36,6.45-6.29,9.94-8.16-3.09-.34-4.73-3-4.73-6.58,0-5,1.42-10.94.89-15.94a13.73,13.73,0,0,1-2.7-.81v-.87a55.53,55.53,0,0,0,10.38-.72l.31.63c-1.63,4.22-2.25,11.71-2.25,15.79,0,1.15,0,3.31.88,3.6,2.08-2.93,3.84-11.71,3.84-15.41a28.4,28.4,0,0,0-.35-3.89,33.31,33.31,0,0,0,7.24-.72l.27.24c-.31,1.16-.89,4.85-.89,12.29A46.57,46.57,0,0,0,113.39,183.24Zm-4.55.14a2.69,2.69,0,0,0,1.9-.53,13,13,0,0,1-5.34-10.32c.22-1.49.48-2.64.71-3.94l-.76-.09c-1.32,7.1-3.35,10.75-6.27,13.15C102,181.65,105.93,183.38,108.84,183.38Z"/><path class="cls-2" d="M126.2,155.87a12.14,12.14,0,0,1,5.78,1.68c.53-1,1.24-2.3,1.86-3.21l.7.24c-1.19,3.41-1.5,9-1.5,13.53a66.19,66.19,0,0,0,.36,7.83c1.5-2.07,2.42-5.23,3.13-7.73l.71.19c-.71,4.27-2,10-5.26,12.44-4.37,0-5-3.61-5-8.36l.71-3.89-.76-.09c-.79,4.37-2,9.74-5.34,12.34-4.06,0-6.27-3.94-6.27-8.36C115.29,165.14,120,158.9,126.2,155.87Zm-3.31,20c2.16-3.17,3.75-11.14,3.75-15.07a2.26,2.26,0,0,0-2-1.3,2,2,0,0,0-1.19.34,53.91,53.91,0,0,0-1.28,11.33C122.14,172.24,122.14,175.22,122.89,175.89Z"/><path class="cls-2" d="M158.3,161.54c0,5.13-1.63,9.5-1.63,14.64a24.08,24.08,0,0,0,3.71-8l.7.19c-.79,4.61-2.34,9.84-5.91,12.44-2.92,0-4.86-1.2-4.86-4.37,0-3.51,1.37-9.12,1.37-12.63,0-.86,0-2.54-.44-3-2.3,2.83-4.29,11.66-4.29,15.41a28.56,28.56,0,0,0,.36,3.89,33.4,33.4,0,0,0-7.25.72l-.26-.24c.31-1.16.88-4.85.88-12.29,0-2.84-.09-7.59-.4-10a13.84,13.84,0,0,1-2.69-.81v-.87a53.26,53.26,0,0,0,10.16-.72l.31.63a22.47,22.47,0,0,0-1.06,7.58c-.22,1.35-.49,2.55-.8,3.84l.71.05c.93-4.61,2.6-9.84,6.4-12.1C156.76,155.87,158.3,157.79,158.3,161.54Z"/><path class="cls-2" d="M171,162.93a118.6,118.6,0,0,0-.57,13c1.5-2.07,2.42-5.23,3.13-7.73l.71.19c-.71,4.27-2,10-5.26,12.44-3.8,0-5.21-1.88-5.21-6,0-4.61,1-12,.49-16.57a13.73,13.73,0,0,1-2.7-.81v-.87a55.47,55.47,0,0,0,10.38-.72l.31.63A20.91,20.91,0,0,0,171,162.93Zm1.1-13.78a15,15,0,0,0-3.4-3.93,12.31,12.31,0,0,0-4.1,3.93,15.88,15.88,0,0,0,3.31,4.9A22.53,22.53,0,0,0,172.12,149.15Z"/><path class="cls-2" d="M182.94,177.38a7.09,7.09,0,0,0,2.21-4.47c0-2.16-8.92-4.75-8.92-8.59,0-3.41,6.09-7.25,9.05-8.45a12.28,12.28,0,0,0,4,.72,2.83,2.83,0,0,0,1.81-.43l.44.53a17.43,17.43,0,0,0-2.91,5.47l-.44.15-1.15-.92a12.09,12.09,0,0,0-4-2.25,2.87,2.87,0,0,0-1.15,2c0,2.16,8.39,4.22,8.39,8.06,0,4.32-5,9.27-8.3,11.67a10.46,10.46,0,0,1-6.89-4l-.39-.58a26,26,0,0,0,4.72-6l.62.39a5.1,5.1,0,0,0-.18,1.39A7.07,7.07,0,0,0,182.94,177.38Z"/><path class="cls-2" d="M200.74,175.94a19.66,19.66,0,0,0,3.71-7.25l.7.19c-.61,4.42-2.56,9.89-5.82,12-3.8,0-5.22-1.88-5.22-6,0-3.65.62-9,.62-13.4,0-.86,0-1.68-.08-2.45l-1.82-.14-.13-.91a16.69,16.69,0,0,0,7-6.1,12.35,12.35,0,0,0,2.3-.67l.4.29a31.55,31.55,0,0,0-.4,5,18.36,18.36,0,0,0,3.09-.77l.27.34a14.6,14.6,0,0,0-.8,3.79,17.6,17.6,0,0,0-2.83-.43c-.17,1-.3,2.11-.44,3.55A94.74,94.74,0,0,0,200.74,175.94Z"/><path class="cls-2" d="M214.38,167.92l.71.05c.93-4.61,2.61-9.84,6.4-12.1,3.45,0,5,1.92,5,5.67,0,5.13-1.63,9.5-1.63,14.64a24.08,24.08,0,0,0,3.71-8l.71.19c-.8,4.61-2.34,9.84-5.92,12.44-2.92,0-4.86-1.2-4.86-4.37,0-3.51,1.37-9.12,1.37-12.63,0-.86,0-2.54-.44-3-2.3,2.83-4.29,11.66-4.29,15.41a28.56,28.56,0,0,0,.36,3.89,33.25,33.25,0,0,0-7.24.72l-.27-.24c.31-1.16.88-4.28.88-15,0-12-.3-16-1.36-19.06l.83-.33a39.42,39.42,0,0,1,3.14,4.37,20,20,0,0,1,8.43-6.44l.4.77c-3.75,2.59-4.81,6.67-4.94,12.43l-.18,6.77C215,165.43,214.69,166.63,214.38,167.92Z"/><path class="cls-2" d="M241.37,155.87a12.17,12.17,0,0,1,5.78,1.68c.53-1,1.24-2.3,1.85-3.21l.71.24c-1.19,3.41-1.5,9-1.5,13.53a66.18,66.18,0,0,0,.35,7.83c1.5-2.07,2.43-5.23,3.14-7.73l.7.19c-.7,4.27-2,10-5.25,12.44-4.37,0-5-3.61-5-8.36l.7-3.89-.75-.09c-.79,4.37-2,9.74-5.34,12.34-4.06,0-6.27-3.94-6.27-8.36C230.46,165.14,235.18,158.9,241.37,155.87Zm-3.32,20c2.17-3.17,3.76-11.14,3.76-15.07a2.28,2.28,0,0,0-2-1.3,2.08,2.08,0,0,0-1.2.34,54.58,54.58,0,0,0-1.28,11.33C237.3,172.24,237.3,175.22,238.05,175.89Z"/><path class="cls-2" d="M273.47,161.54c0,5.13-1.63,9.5-1.63,14.64a23.86,23.86,0,0,0,3.7-8l.71.19c-.79,4.61-2.34,9.84-5.92,12.44-2.91,0-4.85-1.2-4.85-4.37,0-3.51,1.37-9.12,1.37-12.63,0-.86,0-2.54-.45-3-2.29,2.83-4.28,11.66-4.28,15.41a30.22,30.22,0,0,0,.35,3.89,33.31,33.31,0,0,0-7.24.72l-.26-.24c.31-1.16.88-4.85.88-12.29,0-2.84-.09-7.59-.4-10a13.44,13.44,0,0,1-2.69-.81v-.87a53.26,53.26,0,0,0,10.16-.72l.3.63a22.47,22.47,0,0,0-1.06,7.58c-.22,1.35-.48,2.55-.79,3.84l.71.05c.92-4.61,2.6-9.84,6.4-12.1C271.92,155.87,273.47,157.79,273.47,161.54Z"/><path class="cls-3" d="M72,235.06V233.9c0-.31,0-.63-.05-.94a10.7,10.7,0,0,0-1.18-.28l0-.29a3.73,3.73,0,0,0,.57,0,3.31,3.31,0,0,0,2.07-.69l.12.26a2.23,2.23,0,0,0-.47.5c-.12,1.4-.19,2.52-.25,3.92h-.27a4.75,4.75,0,0,0-.31-1,5.45,5.45,0,0,1-1.82,1.15c-2.12,0-3.1-1.61-3.1-3.93,0-2.49,1.3-5,3.49-5.61a16.23,16.23,0,0,1,2.69.26v.31a1.47,1.47,0,0,0-.62.13,6.14,6.14,0,0,0-.43,1.94h-.32a7.07,7.07,0,0,1-.12-1.3,3.21,3.21,0,0,0-1.49-.36,2,2,0,0,0-1.39.5,6.79,6.79,0,0,0-.66,3.1c0,2,.36,3.85,2.22,3.85A2.27,2.27,0,0,0,72,235.06Z"/><path class="cls-3" d="M77.29,229.57a5.31,5.31,0,0,1,1.8.3,3.56,3.56,0,0,0,.3-.75l.27.09a22,22,0,0,0-.29,4.45c0,.7,0,1.54.09,2.24a2.51,2.51,0,0,0,.7.12v.29a8.07,8.07,0,0,0-1.74.27l-.09-.06a16,16,0,0,0,.14-2.19h0a6.64,6.64,0,0,1-2.24,2.26c-1,0-1.55-1.56-1.55-2.68A4.52,4.52,0,0,1,77.29,229.57Zm-.75,5.86c.64,0,1.7-1.31,1.93-2a17.77,17.77,0,0,0-.09-2.69,3.17,3.17,0,0,0-1.34-.34,1.21,1.21,0,0,0-1,.34,7.09,7.09,0,0,0-.43,2.49C75.66,234,75.91,235.43,76.54,235.43Z"/><path class="cls-3" d="M84.69,229.7l0,.05c-.07.23-.12.47-.16.66-.44,0-1.29,0-1.73,0l0,2.77c0,1.77.12,2.43.39,2.43a2.26,2.26,0,0,0,1.46-.75l.13.15A4.4,4.4,0,0,1,83,236.58c-1,0-1.18-.94-1.12-3.44l.05-2.78h-.7l0,0a1,1,0,0,1,0-.31,4.19,4.19,0,0,0,1.41-1.6,2.2,2.2,0,0,1,.36,0l.05,0c-.06.43-.12.91-.15,1.36Z"/><path class="cls-3" d="M89.69,234.82l.14.15A4.72,4.72,0,0,1,88,236.58c-1.56,0-2.26-1.18-2.26-2.88a4.19,4.19,0,0,1,2.6-4.13c1.14,0,1.55.44,1.55,1.68a3.91,3.91,0,0,1-.12.91,1.54,1.54,0,0,0,.63.12l0,.29a15.24,15.24,0,0,0-3.61.46c0,1.32.18,2.54,1.39,2.54A2.47,2.47,0,0,0,89.69,234.82Zm-3-2.15a13.78,13.78,0,0,1,2.09-.58c0-1.12-.09-1.65-.87-1.65a1.21,1.21,0,0,0-.85.34A4.86,4.86,0,0,0,86.72,232.67Z"/><path class="cls-3" d="M99.39,230.83a9.31,9.31,0,0,1-2.23,5.42,4.69,4.69,0,0,1-.72.33c-.31-.09-.66-.55-1.07-2.85a10.45,10.45,0,0,1-1.54,2.52,4.39,4.39,0,0,1-.73.33c-.38-.1-.81-.82-1.39-4.89-.06-.44-.15-1-.25-1.43a2.49,2.49,0,0,0-.7-.11v-.3a8.91,8.91,0,0,0,1.83-.28l.09.06a2.81,2.81,0,0,0-.1.81,9.64,9.64,0,0,0,.11,1.3c.52,3.63.8,4,1,4A6.68,6.68,0,0,0,95,231.58a3.25,3.25,0,0,0-.23-1.32,2.37,2.37,0,0,0-.69-.11v-.3c.56,0,1.31.06,1.88.06a14.45,14.45,0,0,0,3.87-.42l.05.25a4.94,4.94,0,0,1-.61.39A2.88,2.88,0,0,1,99.39,230.83Zm-2-.67a3.51,3.51,0,0,0-1.46.28,8.27,8.27,0,0,0,.12,1.3c.51,3.63.8,4,1,4a6.63,6.63,0,0,0,1.32-4.14,3,3,0,0,0-.27-1.29A2.67,2.67,0,0,0,97.37,230.16Z"/><path class="cls-3" d="M103.2,229.57a5.27,5.27,0,0,1,1.8.3,3.09,3.09,0,0,0,.3-.75l.27.09a22.33,22.33,0,0,0-.28,4.45,21,21,0,0,0,.09,2.24,2.38,2.38,0,0,0,.69.12v.29a8.16,8.16,0,0,0-1.74.27l-.09-.06a14.57,14.57,0,0,0,.15-2.19h-.06a6.55,6.55,0,0,1-2.24,2.26c-1,0-1.54-1.56-1.54-2.68A4.51,4.51,0,0,1,103.2,229.57Zm-.75,5.86c.65,0,1.7-1.31,1.94-2a19.43,19.43,0,0,0-.09-2.69,3.2,3.2,0,0,0-1.34-.34,1.23,1.23,0,0,0-1,.34,7.32,7.32,0,0,0-.42,2.49C101.58,234,101.82,235.43,102.45,235.43Z"/><path class="cls-3" d="M108.82,229.63a39.09,39.09,0,0,0-.25,3.92c0,.72,0,1.88.54,1.88s1.78-1.29,2-2a22.43,22.43,0,0,0-.14-3.27,8.45,8.45,0,0,1-.81-.26l0-.27a8.78,8.78,0,0,0,1.35.11,11.51,11.51,0,0,0,1.31-.08l0,.26a4.35,4.35,0,0,1-.76.28c0,.42-.12,1.52-.12,2.2v1.18c0,.74,0,2.37.09,3.22a4.85,4.85,0,0,1-2.58,2.54,6,6,0,0,1-2.17-.41v-.18a2.88,2.88,0,0,0,.54-1.57h.27a8,8,0,0,0,0,.85,3.32,3.32,0,0,0,1.65.44,1,1,0,0,0,.83-.34,9.66,9.66,0,0,0,.44-3.84h-.05a6.51,6.51,0,0,1-2.29,2.26c-1.06,0-1.16-1.21-1.13-2.4l.06-3.94a2.38,2.38,0,0,0-.7-.11v-.29a7.8,7.8,0,0,0,1.72-.27Z"/><path class="cls-3" d="M119.75,229.7l0,.05a5.21,5.21,0,0,0-.16.66c-.44,0-1.29,0-1.73,0l0,2.77c0,1.77.11,2.43.39,2.43a2.26,2.26,0,0,0,1.46-.75l.13.15a4.46,4.46,0,0,1-1.81,1.61c-1,0-1.18-.94-1.12-3.44l0-2.78h-.7l0,0a1.42,1.42,0,0,1,0-.31,4.22,4.22,0,0,0,1.42-1.6,2.09,2.09,0,0,1,.36,0l0,0c-.06.43-.13.91-.15,1.36Z"/><path class="cls-3" d="M123.37,229.57c1.64,0,2.43,1.09,2.43,2.87a4.62,4.62,0,0,1-2.56,4.14,2.65,2.65,0,0,1-2.56-2.88A4.19,4.19,0,0,1,123.37,229.57Zm-1.24,1.21a5.29,5.29,0,0,0-.42,2.15c0,1.24.62,2.78,1.75,2.78a1.37,1.37,0,0,0,.9-.35,5.15,5.15,0,0,0,.41-2.15c0-1.38-.47-2.77-1.75-2.77A1.31,1.31,0,0,0,122.13,230.78Z"/><path class="cls-3" d="M131.09,235.71a1.06,1.06,0,0,0,1.19-1.1c0-.78-2.7-1.51-2.7-2.64a3.12,3.12,0,0,1,2.1-2.4,5.16,5.16,0,0,1,1.6.23V230a2.52,2.52,0,0,0-.56,1.47h-.28a8,8,0,0,0,0-.85,3,3,0,0,0-1-.17c-.43,0-1.13.17-1.13.8,0,.78,2.7,1.53,2.7,2.66a3.33,3.33,0,0,1-2.16,2.68,5.2,5.2,0,0,1-1.78-.3v-.19a2.57,2.57,0,0,0,.56-1.48h.28c0,.31,0,.87,0,.86A3.34,3.34,0,0,0,131.09,235.71Z"/><path class="cls-3" d="M137,229.57a5.31,5.31,0,0,1,1.8.3,3.56,3.56,0,0,0,.3-.75l.27.09a22,22,0,0,0-.29,4.45c0,.7,0,1.54.09,2.24a2.45,2.45,0,0,0,.7.12v.29a8.07,8.07,0,0,0-1.74.27l-.09-.06a16,16,0,0,0,.14-2.19h-.05a6.64,6.64,0,0,1-2.24,2.26c-1,0-1.55-1.56-1.55-2.68A4.52,4.52,0,0,1,137,229.57Zm-.75,5.86c.64,0,1.7-1.31,1.93-2a17.77,17.77,0,0,0-.09-2.69,3.17,3.17,0,0,0-1.34-.34,1.21,1.21,0,0,0-.95.34,7.09,7.09,0,0,0-.43,2.49C135.41,234,135.66,235.43,136.29,235.43Z"/><path class="cls-3" d="M144.44,229.7l.05.05c-.07.23-.12.47-.16.66-.44,0-1.29,0-1.73,0l0,2.77c0,1.77.12,2.43.39,2.43a2.26,2.26,0,0,0,1.46-.75l.13.15a4.46,4.46,0,0,1-1.81,1.61c-1,0-1.18-.94-1.12-3.44l.05-2.78H141l0,0a1.42,1.42,0,0,1,0-.31,4.22,4.22,0,0,0,1.42-1.6,2.09,2.09,0,0,1,.36,0l0,0c-.06.43-.12.91-.15,1.36Z"/><path class="cls-3" d="M147.24,233.7c0,.69,0,1.83.09,2.25a8.45,8.45,0,0,1,.81.26l0,.27a8.78,8.78,0,0,0-1.35-.11,9.5,9.5,0,0,0-1.31.08l0-.27a6.24,6.24,0,0,1,.76-.28c.05-.42.11-1.51.11-2.2v-1.17c0-.74,0-1.42-.1-2.27a2.42,2.42,0,0,0-.69-.11v-.3a9.43,9.43,0,0,0,1.82-.28l.09.06a25.62,25.62,0,0,0-.16,2.9Zm-.47-5.16a3,3,0,0,1-.69-.86,2.1,2.1,0,0,1,.69-.7,2.91,2.91,0,0,1,.7.7A3.22,3.22,0,0,1,146.77,228.54Z"/><path class="cls-3" d="M151.78,229.57a5.33,5.33,0,0,1,1.81.3,3.54,3.54,0,0,0,.29-.75l.27.09a23.16,23.16,0,0,0-.28,4.45,21,21,0,0,0,.09,2.24,2.39,2.39,0,0,0,.7.12v.29a8.07,8.07,0,0,0-1.74.27l-.09-.06a16,16,0,0,0,.14-2.19h-.05a6.73,6.73,0,0,1-2.24,2.26c-1,0-1.55-1.56-1.55-2.68A4.51,4.51,0,0,1,151.78,229.57Zm-.74,5.86c.64,0,1.7-1.31,1.93-2a19.43,19.43,0,0,0-.09-2.69,3.17,3.17,0,0,0-1.34-.34,1.21,1.21,0,0,0-.95.34,7.09,7.09,0,0,0-.43,2.49C150.16,234,150.41,235.43,151,235.43Z"/><path class="cls-3" d="M159.19,229.7l.05.05a5.37,5.37,0,0,0-.17.66c-.43,0-1.28,0-1.72,0l0,2.77c0,1.77.11,2.43.38,2.43a2.26,2.26,0,0,0,1.47-.75l.13.15a4.43,4.43,0,0,1-1.82,1.61c-1,0-1.17-.94-1.12-3.44l0-2.78h-.69l0,0a1.37,1.37,0,0,1,0-.31,4.22,4.22,0,0,0,1.42-1.6,2,2,0,0,1,.36,0l0,0c-.06.43-.13.91-.15,1.36Z"/><path class="cls-3" d="M164.19,234.82l.14.15a4.79,4.79,0,0,1-1.88,1.61c-1.56,0-2.27-1.18-2.27-2.88a4.2,4.2,0,0,1,2.6-4.13c1.15,0,1.56.44,1.56,1.68a3.45,3.45,0,0,1-.13.91,1.6,1.6,0,0,0,.63.12v.29a15.31,15.31,0,0,0-3.62.46c0,1.32.18,2.54,1.39,2.54A2.5,2.5,0,0,0,164.19,234.82Zm-3-2.15a14.23,14.23,0,0,1,2.1-.58c0-1.12-.09-1.65-.87-1.65a1.21,1.21,0,0,0-.85.34A4.87,4.87,0,0,0,161.21,232.67Z"/><path class="cls-3" d="M169.63,229.63c-.1.7-.21,2.45-.24,3.92,0,.72,0,1.88.54,1.88s1.78-1.29,2-2a24,24,0,0,0-.14-3.27,8.45,8.45,0,0,1-.81-.26l0-.27a8.81,8.81,0,0,0,1.36.11,11.66,11.66,0,0,0,1.31-.08l0,.26a4.35,4.35,0,0,1-.76.28c-.05.42-.12,1.52-.12,2.2v1.18c0,.74,0,2.37.09,3.22a4.87,4.87,0,0,1-2.59,2.54,5.92,5.92,0,0,1-2.16-.41v-.18a3,3,0,0,0,.54-1.57H169a8,8,0,0,0,0,.85,3.32,3.32,0,0,0,1.65.44,1,1,0,0,0,.83-.34,9.66,9.66,0,0,0,.44-3.84h-.05a6.51,6.51,0,0,1-2.29,2.26c-1.06,0-1.16-1.21-1.14-2.4l.07-3.94a2.43,2.43,0,0,0-.7-.11v-.29a7.62,7.62,0,0,0,1.71-.27Z"/><path class="cls-3" d="M177.44,229.57c1.64,0,2.43,1.09,2.43,2.87a4.62,4.62,0,0,1-2.56,4.14,2.64,2.64,0,0,1-2.56-2.88A4.19,4.19,0,0,1,177.44,229.57Zm-1.24,1.21a5.13,5.13,0,0,0-.42,2.15c0,1.24.62,2.78,1.75,2.78a1.37,1.37,0,0,0,.9-.35,5.15,5.15,0,0,0,.41-2.15c0-1.38-.47-2.77-1.75-2.77A1.31,1.31,0,0,0,176.2,230.78Z"/><path class="cls-3" d="M182.73,229.63c-.1.7-.22,2.45-.24,3.92,0,.69-.05,1.88.58,1.88s1.81-1.25,2.1-2a24,24,0,0,0-.14-3.27c-.22,0-.6-.18-.82-.26l0-.27a8.78,8.78,0,0,0,1.35.11,11.69,11.69,0,0,0,1.32-.08l0,.26a4.67,4.67,0,0,1-.76.28,21.69,21.69,0,0,0-.12,2.2v1.18c0,.74,0,1.43.09,2.28a2.38,2.38,0,0,0,.69.12v.29a8,8,0,0,0-1.73.27l-.09,0a16.44,16.44,0,0,0,.14-2.22h0a6.66,6.66,0,0,1-2.41,2.26c-1.1,0-1.2-1.21-1.17-2.4l.06-3.94a2.37,2.37,0,0,0-.69-.11v-.29a8,8,0,0,0,1.73-.27Z"/><path class="cls-3" d="M189.84,236a6.91,6.91,0,0,1,1.09.26l0,.27a8.2,8.2,0,0,0-1.48-.11,11.91,11.91,0,0,0-1.46.08l0-.27a7.77,7.77,0,0,1,.76-.28,21.52,21.52,0,0,0,.12-2.2v-1.17c0-.74,0-1.43-.09-2.29a2.38,2.38,0,0,0-.7-.11v-.29a8.07,8.07,0,0,0,1.74-.27l.09.06a16,16,0,0,0-.14,2.18l.05,0a5,5,0,0,1,1.56-2.26,3.26,3.26,0,0,1,1.14.23V230a3.06,3.06,0,0,0-.56,1.75h-.28a8.14,8.14,0,0,0,0-.85.85.85,0,0,0-.44-.14c-.58,0-1.24,1.33-1.44,1.93A24,24,0,0,0,189.84,236Z"/><path class="cls-3" d="M199.36,236.52c.1-.7.22-2.45.25-3.92,0-.69,0-1.88-.58-1.88s-1.82,1.25-2.1,2a22.43,22.43,0,0,0,.14,3.27,8.45,8.45,0,0,1,.81.26l0,.27a8.78,8.78,0,0,0-1.35-.11,9.6,9.6,0,0,0-1.31.08l0-.27a6.92,6.92,0,0,1,.76-.28c.05-.42.12-1.51.12-2.2v-2.6a23.64,23.64,0,0,0-.31-5L196,226a3.26,3.26,0,0,0,.29.74,10.66,10.66,0,0,0,1.38-.33l.07.25a4.33,4.33,0,0,1-.61.41,34,34,0,0,0-.19,4.74l0,0a6.5,6.5,0,0,1,2.41-2.26c1.09,0,1.19,1.21,1.17,2.4l-.06,3.93a2.38,2.38,0,0,0,.69.12v.29a8.07,8.07,0,0,0-1.74.27Z"/><path class="cls-3" d="M203.92,229.63c-.1.7-.22,2.45-.24,3.92,0,.69-.06,1.88.58,1.88s1.81-1.25,2.1-2a22.1,22.1,0,0,0-.15-3.27c-.21,0-.59-.18-.81-.26l0-.27a8.78,8.78,0,0,0,1.35.11,11.38,11.38,0,0,0,1.31-.08l0,.26a4.07,4.07,0,0,1-.76.28c-.05.42-.11,1.52-.11,2.2v1.18c0,.74,0,1.43.09,2.28a2.38,2.38,0,0,0,.69.12v.29a8.07,8.07,0,0,0-1.74.27l-.09,0a15,15,0,0,0,.15-2.22h-.06a6.55,6.55,0,0,1-2.4,2.26c-1.1,0-1.2-1.21-1.18-2.4l.07-3.94a2.43,2.43,0,0,0-.7-.11v-.29a8.07,8.07,0,0,0,1.74-.27Z"/><path class="cls-3" d="M213.31,236.39v-.19a23.93,23.93,0,0,0,.26-3.6c0-.69.05-1.88-.58-1.88s-1.82,1.25-2.1,2A24,24,0,0,0,211,236a8.45,8.45,0,0,1,.81.26l0,.27a8.81,8.81,0,0,0-1.36-.11,9.7,9.7,0,0,0-1.31.08l0-.27a6.92,6.92,0,0,1,.76-.28c0-.42.12-1.51.12-2.2v-1.17c0-.74,0-1.43-.09-2.29a2.49,2.49,0,0,0-.7-.11v-.29a8.07,8.07,0,0,0,1.74-.27l.09.06a16,16,0,0,0-.14,2.18l.05,0a6.5,6.5,0,0,1,2.41-2.26c1.09,0,1.2,1.21,1.17,2.4l-.06,3.93a7.77,7.77,0,0,1,.76.28l0,.27a8.61,8.61,0,0,0-1.24-.08Z"/><path class="cls-3" d="M218.94,229.57a5.31,5.31,0,0,1,1.8.3,8,8,0,0,0,1-.27l.07.25a3.1,3.1,0,0,1-.61.41c-.07.78-.16,1.85-.16,3.16,0,1.64,0,2.67.09,3.42a5,5,0,0,1-2.63,2.54,6.26,6.26,0,0,1-2.29-.44v-.26a6.27,6.27,0,0,1,1.44-2.34v-.06c-.85-.25-1.29-1.55-1.29-2.51A4.33,4.33,0,0,1,218.94,229.57Zm1.13,4.4c-.72,1.63-2.65,2.37-2.86,4.15a3.43,3.43,0,0,0,1.59.39,1.11,1.11,0,0,0,.89-.34,11.29,11.29,0,0,0,.43-4.19Zm-1.83,1.25c.62,0,1.65-1.39,1.88-2a13.89,13.89,0,0,0-.09-2.42,3.17,3.17,0,0,0-1.34-.34,1.18,1.18,0,0,0-.92.34,7,7,0,0,0-.39,2.38C217.38,233.83,217.62,235.22,218.24,235.22Z"/><path class="cls-3" d="M226.79,234.82l.15.15a4.86,4.86,0,0,1-1.88,1.61c-1.56,0-2.27-1.18-2.27-2.88a4.2,4.2,0,0,1,2.6-4.13c1.15,0,1.56.44,1.56,1.68a3.45,3.45,0,0,1-.13.91,1.6,1.6,0,0,0,.63.12v.29a15.31,15.31,0,0,0-3.62.46c0,1.32.18,2.54,1.39,2.54A2.47,2.47,0,0,0,226.79,234.82Zm-3-2.15a14.23,14.23,0,0,1,2.1-.58c0-1.12-.09-1.65-.88-1.65a1.23,1.23,0,0,0-.85.34A5.05,5.05,0,0,0,223.82,232.67Z"/><path class="cls-3" d="M230,236a6.54,6.54,0,0,1,1.08.26l0,.27a8.2,8.2,0,0,0-1.48-.11,11.91,11.91,0,0,0-1.46.08l0-.27a6.92,6.92,0,0,1,.76-.28c.05-.42.12-1.51.12-2.2v-1.17c0-.74,0-1.43-.09-2.29a2.43,2.43,0,0,0-.7-.11v-.29a8.07,8.07,0,0,0,1.74-.27l.09.06a16,16,0,0,0-.14,2.18l0,0a5,5,0,0,1,1.56-2.26,3.21,3.21,0,0,1,1.13.23V230a3.13,3.13,0,0,0-.55,1.75h-.28a8.14,8.14,0,0,0,0-.85.85.85,0,0,0-.44-.14c-.58,0-1.25,1.33-1.44,1.93A24,24,0,0,0,230,236Z"/><path class="cls-3" d="M41.36,263.43c0-2.43-.12-4.48-.18-5.09a5.23,5.23,0,0,0-1.62-.29v-.45c1.52,0,3.77-.16,4.8-.16,2,0,3.41.75,3.41,2.95a3.78,3.78,0,0,1-4,3.58,2.23,2.23,0,0,1-.36,0l.07-.57h.2c1.65,0,2.56-.92,2.56-2.72s-.61-2.56-2.13-2.56a3.65,3.65,0,0,0-1.3.24,50.19,50.19,0,0,0-.14,5.09c0,2.18.11,4.56.19,5.22a16.4,16.4,0,0,1,1.83.35l0,.43a25.15,25.15,0,0,0-2.59-.15,17.29,17.29,0,0,0-2.38.15l-.07-.45a11.13,11.13,0,0,1,1.59-.38C41.24,268,41.36,265.61,41.36,263.43Z"/><path class="cls-3" d="M53.73,269.48c.13-.9.28-3.15.31-5,0-.88.07-2.41-.74-2.41s-2.34,1.6-2.7,2.52a29.24,29.24,0,0,0,.18,4.19c.28.08.76.24,1,.35l0,.34a11.36,11.36,0,0,0-1.74-.15,13.54,13.54,0,0,0-1.68.11l0-.34a5.66,5.66,0,0,1,1-.36c.07-.54.15-1.94.15-2.83v-3.35a30,30,0,0,0-.4-6.44l.35-.11a4,4,0,0,0,.38,1,13.43,13.43,0,0,0,1.77-.43l.09.33a5,5,0,0,1-.78.52,43,43,0,0,0-.25,6.1l.07,0a8.31,8.31,0,0,1,3.09-2.9c1.41,0,1.54,1.55,1.51,3.08l-.08,5.06a3,3,0,0,0,.89.14v.38a11.47,11.47,0,0,0-2.23.34Z"/><path class="cls-3" d="M60.87,260.55c2.1,0,3.13,1.41,3.13,3.69a5.92,5.92,0,0,1-3.3,5.31,3.39,3.39,0,0,1-3.29-3.69C57.41,263.49,58.75,261.15,60.87,260.55Zm-1.59,1.55a6.62,6.62,0,0,0-.55,2.77c0,1.59.8,3.57,2.25,3.57a1.74,1.74,0,0,0,1.16-.45,6.56,6.56,0,0,0,.53-2.76c0-1.78-.61-3.56-2.25-3.56A1.67,1.67,0,0,0,59.28,262.1Z"/><path class="cls-3" d="M70.77,269.32v-.25a31,31,0,0,0,.33-4.63c0-.88.07-2.41-.74-2.41s-2.34,1.6-2.7,2.52a29.24,29.24,0,0,0,.18,4.19c.28.08.76.24,1,.35l0,.34a11.36,11.36,0,0,0-1.74-.15,13.83,13.83,0,0,0-1.69.11l0-.34a6.09,6.09,0,0,1,1-.36c.07-.54.15-1.94.15-2.83v-1.51c0-1,0-1.84-.12-2.93a3.08,3.08,0,0,0-.89-.15v-.38a10.12,10.12,0,0,0,2.23-.34l.12.07a20.4,20.4,0,0,0-.18,2.81l.06,0a8.41,8.41,0,0,1,3.1-2.9c1.41,0,1.54,1.55,1.51,3.08l-.09,5.06a5.76,5.76,0,0,1,1,.36l0,.34a12.14,12.14,0,0,0-1.59-.11C71.33,269.28,71,269.3,70.77,269.32Z"/><path class="cls-3" d="M79.78,267.3l.18.18a6,6,0,0,1-2.42,2.07c-2,0-2.91-1.51-2.91-3.69,0-2.34,1.26-4.68,3.34-5.31,1.48,0,2,.56,2,2.16a4.53,4.53,0,0,1-.17,1.17,2.15,2.15,0,0,0,.81.15v.37A19.74,19.74,0,0,0,76,265c0,1.69.24,3.26,1.79,3.26A3.19,3.19,0,0,0,79.78,267.3ZM76,264.53a18.3,18.3,0,0,1,2.7-.74c0-1.44-.11-2.12-1.12-2.12a1.61,1.61,0,0,0-1.1.43A6.5,6.5,0,0,0,76,264.53Z"/><path class="cls-3" d="M88,264.77l-3.59.27-.15-.11.1-.83h.76a22.72,22.72,0,0,0,2.85-.18l.13.09Z"/><path class="cls-3" d="M95.68,268.44a1.34,1.34,0,0,0,1.14-.43,3.48,3.48,0,0,0,.25-1.35c0-1.66-.65-2.74-2.17-2.74a2.83,2.83,0,0,0-.5.05v-.12a8.57,8.57,0,0,0,.94-.87c2.14,0,3.18,1.17,3.18,3.5a6.23,6.23,0,0,1-3.19,3.07c-2,0-2.88-1.35-2.88-3.54A8.4,8.4,0,0,1,97,258.75l.21.33a7.79,7.79,0,0,0-3.26,6.33C93.92,266.93,94.29,268.44,95.68,268.44Z"/><path class="cls-3" d="M105,261a3.75,3.75,0,0,0,.6-.49l.28.27a38.44,38.44,0,0,0-2.93,3.66c1.57.29,2.52,1.58,2.52,3.62a6.11,6.11,0,0,1-3,3.26,7.45,7.45,0,0,1-3-.71v-.23a3.71,3.71,0,0,0,.71-2h.36c0,.4,0,.7,0,1.1a4.32,4.32,0,0,0,2.21.74,1.19,1.19,0,0,0,1-.43,4.42,4.42,0,0,0,.25-1.53c0-1.7-.85-2.74-2.35-2.74l-.07-.11,2.24-3.29,0-.08a2.66,2.66,0,0,1-.44.18c-.85,0-1.59-.05-2.44-.12-.13.36-.23.72-.33,1.1l-.35-.13a6.93,6.93,0,0,0,.12-1.17,4.26,4.26,0,0,0-.17-1.21l.19-.16A20,20,0,0,0,105,261Z"/><path class="cls-3" d="M113.44,264.1l1.08-2,0-.07a3.89,3.89,0,0,1-.43.19,23.29,23.29,0,0,1-3-.1,6.64,6.64,0,0,0-.3,1.08l-.36-.09a6.48,6.48,0,0,0,.08-1,4.48,4.48,0,0,0-.2-1.4l.18-.16a21.09,21.09,0,0,0,4.75.47,2.2,2.2,0,0,0,.28-.44l.33.18c-.61,1.14-1.22,2.4-1.75,3.68a17.08,17.08,0,0,0-1.44,6,8.69,8.69,0,0,1,1.32.39l0,.36a12.82,12.82,0,0,0-1.85-.1,8.81,8.81,0,0,0-1.66.19l-.08-.36a3.91,3.91,0,0,0,.83-.38A16.75,16.75,0,0,1,113.44,264.1Z"/><path class="cls-3" d="M120.37,269.05l-.05.34a14.65,14.65,0,0,0-1.74-.11,11.53,11.53,0,0,0-1.94.15l0-.34c.35-.13.93-.31,1.29-.4.07-.59.15-1.94.15-2.83v-1.51c0-.85,0-2.27-.12-2.86a8.92,8.92,0,0,1-1.29-.52l0-.36a9,9,0,0,0,1.92.21,14,14,0,0,0,1.72-.09l.07.36a6.85,6.85,0,0,0-1,.38c-.06.54-.15,2-.15,2.88v1.51c0,.89,0,2.24.12,2.78A7.53,7.53,0,0,1,120.37,269.05Z"/><path class="cls-3" d="M124.24,262.24a2.86,2.86,0,0,1-.38-.18l-.07.09-.18,2.79a3.77,3.77,0,0,1,1.08-.54c2.13.08,3.41,1.37,3.41,3.7a6.13,6.13,0,0,1-3,3.26,7.46,7.46,0,0,1-3-.71v-.23a3.63,3.63,0,0,0,.71-2h.37c0,.4,0,.7,0,1.1a4.29,4.29,0,0,0,2.2.74,1.18,1.18,0,0,0,1-.43,4.2,4.2,0,0,0,.25-1.53c0-1.66-.81-2.74-2.33-2.74a2.15,2.15,0,0,0-1.16.31l-.2-.17.17-3.15a10.44,10.44,0,0,0,0-1.92l.35-.08a4.58,4.58,0,0,0,.15.49,21.12,21.12,0,0,0,3.79-.47l.18.16a4.62,4.62,0,0,0-.2,1.43,6.48,6.48,0,0,0,.09,1l-.37.09a6.64,6.64,0,0,0-.3-1.08A23.68,23.68,0,0,1,124.24,262.24Z"/><path class="cls-3" d="M133.51,269.05l0,.34a14.35,14.35,0,0,0-1.73-.11,11.45,11.45,0,0,0-1.94.15l0-.34a12.92,12.92,0,0,1,1.29-.4c.06-.59.15-1.94.15-2.83v-1.51c0-.85,0-2.27-.12-2.86a8.92,8.92,0,0,1-1.29-.52l.05-.36a9,9,0,0,0,1.92.21,14,14,0,0,0,1.72-.09l.07.36a6.85,6.85,0,0,0-1,.38c-.07.54-.15,2-.15,2.88v1.51c0,.89.05,2.24.12,2.78A6.88,6.88,0,0,1,133.51,269.05Z"/><path class="cls-3" d="M142,269.05l0,.34a14.39,14.39,0,0,0-1.74-.11,11.41,11.41,0,0,0-1.93.15l0-.34c.35-.13.93-.31,1.29-.4.07-.59.15-1.94.15-2.83v-1.51c0-.85-.05-2.27-.11-2.86a8.92,8.92,0,0,1-1.29-.52l0-.36a9,9,0,0,0,1.92.21,14.11,14.11,0,0,0,1.73-.09l.06.36a6.73,6.73,0,0,0-1,.38c-.07.54-.15,2-.15,2.88v1.51c0,.89.05,2.24.11,2.78A7,7,0,0,1,142,269.05Z"/><path class="cls-3" d="M149.08,261a3.75,3.75,0,0,0,.6-.49l.28.27a38.44,38.44,0,0,0-2.93,3.66c1.57.29,2.51,1.58,2.51,3.62a6.06,6.06,0,0,1-3,3.26,7.54,7.54,0,0,1-3-.71v-.23a3.64,3.64,0,0,0,.72-2h.36c0,.4,0,.7,0,1.1a4.32,4.32,0,0,0,2.21.74,1.19,1.19,0,0,0,1-.43,4.42,4.42,0,0,0,.25-1.53c0-1.7-.85-2.74-2.35-2.74l-.07-.11,2.24-3.29,0-.08a2.54,2.54,0,0,1-.45.18c-.84,0-1.59-.05-2.43-.12-.13.36-.23.72-.33,1.1l-.35-.13a6.93,6.93,0,0,0,.12-1.17,4.26,4.26,0,0,0-.17-1.21l.18-.16A20.16,20.16,0,0,0,149.08,261Z"/><path class="cls-3" d="M154.65,268.44a1.34,1.34,0,0,0,1.14-.43,3.48,3.48,0,0,0,.25-1.35c0-1.66-.65-2.74-2.17-2.74a2.83,2.83,0,0,0-.5.05v-.12a9.59,9.59,0,0,0,.94-.87c2.14,0,3.18,1.17,3.18,3.5a6.23,6.23,0,0,1-3.19,3.07c-2,0-2.88-1.35-2.88-3.54a8.4,8.4,0,0,1,4.52-7.26l.21.33a7.79,7.79,0,0,0-3.26,6.33C152.89,266.93,153.25,268.44,154.65,268.44Z"/><path class="cls-3" d="M164.56,260.55c0,.9-1.07,2.11-1.8,2.67,1.06.72,2.15,1.55,2.15,3.08a5.85,5.85,0,0,1-3.13,3.25,2.77,2.77,0,0,1-2.83-2.61,4.66,4.66,0,0,1,1.94-3.09,3.42,3.42,0,0,1-1.57-2.74,6.55,6.55,0,0,1,2.94-2.36C163.42,258.75,164.56,259.29,164.56,260.55Zm-3.36,3.55a3.16,3.16,0,0,0-1,2.38,2,2,0,0,0,1.95,2,1.24,1.24,0,0,0,1.08-.43,3.88,3.88,0,0,0,.24-1.35C163.45,265.56,162.3,264.91,161.2,264.1Zm1.21-1.12a2.71,2.71,0,0,0,.93-2c0-.86-.63-1.15-1.42-1.15a1.54,1.54,0,0,0-1,.41,1.9,1.9,0,0,0-.11.61C160.76,261.81,161.53,262.39,162.41,263Z"/><path class="cls-3" d="M166.63,271.79l-.16-.18a4.94,4.94,0,0,0,.93-2.25,4.48,4.48,0,0,1-.67-.9,2.76,2.76,0,0,1,.9-.9,3.47,3.47,0,0,1,.89.9A4.61,4.61,0,0,1,166.63,271.79Z"/><path class="cls-3" d="M181.69,261.67a1.37,1.37,0,0,0-1.15.43,3.44,3.44,0,0,0-.24,1.35c0,1.66.64,2.74,2.16,2.74a2.07,2.07,0,0,0,.5-.06v.13a9.48,9.48,0,0,0-.94.86c-2.14,0-3.18-1.17-3.18-3.49a6.21,6.21,0,0,1,3.19-3.08c2,0,2.89,1.35,2.89,3.55a8.42,8.42,0,0,1-4.52,7.26l-.22-.33a7.8,7.8,0,0,0,3.26-6.34C183.44,263.18,183.08,261.67,181.69,261.67Z"/><path class="cls-3" d="M190,260.55c1.45,0,2.91,1.46,3.41,4.27-.5,3.37-2.29,4.73-3.41,4.73-1.46,0-3-1.44-3.46-4.24C187,261.94,188.84,260.55,190,260.55Zm-1.82,4.5c0,1.57.64,3.5,1.82,3.93,1.17-.43,1.82-2.36,1.82-3.93s-.65-3.49-1.82-3.92C188.79,261.56,188.15,263.49,188.15,265.05Z"/><path class="cls-3" d="M200.4,261.67a1.34,1.34,0,0,0-1.14.43,3.44,3.44,0,0,0-.25,1.35c0,1.66.64,2.74,2.17,2.74a2.05,2.05,0,0,0,.49-.06v.13a9.48,9.48,0,0,0-.94.86c-2.14,0-3.18-1.17-3.18-3.49a6.19,6.19,0,0,1,3.2-3.08c2,0,2.88,1.35,2.88,3.55a8.42,8.42,0,0,1-4.52,7.26l-.22-.33a7.78,7.78,0,0,0,3.26-6.34C202.15,263.18,201.79,261.67,200.4,261.67Z"/><path class="cls-3" d="M208.68,260.55c1.46,0,2.91,1.46,3.41,4.27-.5,3.37-2.29,4.73-3.41,4.73-1.46,0-3-1.44-3.46-4.24C205.72,261.94,207.55,260.55,208.68,260.55Zm-1.82,4.5c0,1.57.64,3.5,1.82,3.93,1.17-.43,1.82-2.36,1.82-3.93s-.65-3.49-1.82-3.92C207.5,261.56,206.86,263.49,206.86,265.05Z"/><path class="cls-3" d="M215.6,262.24a2.86,2.86,0,0,1-.38-.18l-.07.09-.18,2.79a3.77,3.77,0,0,1,1.08-.54c2.13.08,3.41,1.37,3.41,3.7a6.13,6.13,0,0,1-3,3.26,7.46,7.46,0,0,1-3-.71v-.23a3.63,3.63,0,0,0,.71-2h.37c0,.4,0,.7,0,1.1a4.29,4.29,0,0,0,2.2.74,1.19,1.19,0,0,0,1-.43,4.2,4.2,0,0,0,.25-1.53c0-1.66-.81-2.74-2.33-2.74a2.15,2.15,0,0,0-1.16.31l-.2-.17.17-3.15a10.44,10.44,0,0,0,0-1.92l.35-.08a4.58,4.58,0,0,0,.15.49,21.23,21.23,0,0,0,3.79-.47l.18.16a4.62,4.62,0,0,0-.2,1.43,6.48,6.48,0,0,0,.09,1l-.37.09a6.64,6.64,0,0,0-.3-1.08A23.68,23.68,0,0,1,215.6,262.24Z"/><path class="cls-3" d="M226.43,261a3.75,3.75,0,0,0,.6-.49l.28.27a38.44,38.44,0,0,0-2.93,3.66c1.57.29,2.51,1.58,2.51,3.62a6.06,6.06,0,0,1-3,3.26,7.54,7.54,0,0,1-3-.71v-.23a3.64,3.64,0,0,0,.72-2H222c0,.4,0,.7,0,1.1a4.32,4.32,0,0,0,2.21.74,1.19,1.19,0,0,0,1-.43,4.42,4.42,0,0,0,.25-1.53c0-1.7-.85-2.74-2.35-2.74l-.07-.11,2.24-3.29,0-.08a2.66,2.66,0,0,1-.44.18c-.85,0-1.59-.05-2.44-.12-.13.36-.23.72-.33,1.1l-.35-.13a6.93,6.93,0,0,0,.12-1.17,4.26,4.26,0,0,0-.17-1.21l.18-.16A20.16,20.16,0,0,0,226.43,261Z"/><path class="cls-3" d="M237.43,260.55c0,.9-1.08,2.11-1.81,2.67,1.06.72,2.15,1.55,2.15,3.08a5.86,5.86,0,0,1-3.12,3.25,2.77,2.77,0,0,1-2.84-2.61,4.7,4.7,0,0,1,1.94-3.09,3.44,3.44,0,0,1-1.57-2.74,6.61,6.61,0,0,1,2.94-2.36C236.28,258.75,237.43,259.29,237.43,260.55Zm-3.36,3.55a3.13,3.13,0,0,0-1,2.38,2,2,0,0,0,2,2,1.23,1.23,0,0,0,1.08-.43,3.89,3.89,0,0,0,.25-1.35C236.32,265.56,235.16,264.91,234.07,264.1Zm1.2-1.12a2.71,2.71,0,0,0,.93-2c0-.86-.63-1.15-1.42-1.15a1.56,1.56,0,0,0-1.05.41,1.9,1.9,0,0,0-.11.61C233.62,261.81,234.4,262.39,235.27,263Z"/><path class="cls-3" d="M244.25,267.32c.78,0,1.06-.05,1.34-.79l.27.05a7.66,7.66,0,0,0-.15,1.66l-.07,0a12.28,12.28,0,0,0-1.37-.06,17.73,17.73,0,0,0,.13,2.27,4.73,4.73,0,0,0,.84.33l-.06.36a15.76,15.76,0,0,0-1.68-.09,9.51,9.51,0,0,0-1.83.21l0-.36a9.21,9.21,0,0,1,1.3-.47,17,17,0,0,0,.12-2.25h-4.19l-.06-.25a33.59,33.59,0,0,0,4.32-7,6.1,6.1,0,0,0,1.21-.45l.13.07a31.23,31.23,0,0,0-.22,3.73C244.23,266.24,244.23,266.69,244.25,267.32Zm-3.73-.2c.65.08,1.63.13,2.52.15l.05-4.81H243A32.79,32.79,0,0,1,240.52,267.12Z"/><path class="cls-3" d="M252.69,263.41a27.77,27.77,0,0,1-3.9,4.45l0,.07a3.78,3.78,0,0,1,.45-.18,21.38,21.38,0,0,1,3.09.2,9.21,9.21,0,0,0,.38-1l.35.12a5.58,5.58,0,0,0-.18,1.32,4.37,4.37,0,0,0,.12,1.06l-.2.14a21.87,21.87,0,0,0-4.9-.64,6.87,6.87,0,0,0-.52.64l-.31-.18c1-2.12,4-4.19,4-6.37,0-.92-.62-1.33-1.46-1.33a.78.78,0,0,0-1.14.86.58.58,0,0,0,.16.49v.13a3.88,3.88,0,0,0-.8.71.49.49,0,0,1-.43-.52c0-1.19,1.62-2.45,2.68-2.79C251.9,260.55,252.69,261.47,252.69,263.41Z"/><path class="cls-3" d="M260.05,263.41a27.82,27.82,0,0,1-3.91,4.45l0,.07a3.78,3.78,0,0,1,.45-.18,21.52,21.52,0,0,1,3.1.2c.14-.34.26-.68.38-1l.34.12a5.58,5.58,0,0,0-.18,1.32,4.37,4.37,0,0,0,.12,1.06l-.2.14a21.87,21.87,0,0,0-4.9-.64,5.51,5.51,0,0,0-.51.64l-.32-.18c1-2.12,4-4.19,4-6.37,0-.92-.62-1.33-1.46-1.33a.78.78,0,0,0-1.14.86.58.58,0,0,0,.16.49v.13a3.88,3.88,0,0,0-.8.71.49.49,0,0,1-.43-.52c0-1.19,1.62-2.45,2.68-2.79C259.25,260.55,260.05,261.47,260.05,263.41Z"/><path class="cls-2" d="M192.65,93.74,179.71,81.41a.79.79,0,0,1,.09-1.23c1.65-1.1,2-3.18.39-4.09a.67.67,0,0,1-.12-1l2.58-2.63h4.73c3.53-.67,3.53-4.56,0-5.36H112.62c-3.53.8-3.53,4.69,0,5.36h4.73L119.93,75a.67.67,0,0,1-.12,1c-1.63.91-1.26,3,.39,4.09a.79.79,0,0,1,.09,1.23L107.35,93.74a2,2,0,0,0-.38,2.47c6,11,28.53,16.58,43,16.42,14.5.16,37.07-5.4,43-16.42A2,2,0,0,0,192.65,93.74Z"/><path class="cls-4" d="M112.62,71.54c-1.36-.81,0-1.61,0-1.61h30.59S114,72.34,112.62,71.54Z"/><path class="cls-4" d="M118.33,94.88l5.94-12.48h9.06l-7.52,8.82-1.23-1.44-6.25,5.1h12c2.64,6,9.23,12.78,15.51,17.34C133.64,109,124.33,101.23,118.33,94.88Z"/><path class="cls-4" d="M120.94,79.32c-1.36-.81,0-1.61,0-1.61h30.58S122.3,80.12,120.94,79.32Z"/><path class="cls-2" d="M134.24,63.49a12.09,12.09,0,0,1,.69-3.31,9.34,9.34,0,0,1,1.68-2.71,33.64,33.64,0,0,1,5.11-4.3,48.51,48.51,0,0,0,5.5-4.66,29.23,29.23,0,0,0,2.46-2.82,19.42,19.42,0,0,0,2-3.31,14.38,14.38,0,0,0,1.21-3.88,10.48,10.48,0,0,0-.21-4.27,8.54,8.54,0,0,0-2.2-3.84,7.32,7.32,0,0,0-4-2.06,6.38,6.38,0,0,0-4.44.73,5.06,5.06,0,0,0-1.69,1.66,4.5,4.5,0,0,0-.64,2.26,5.12,5.12,0,0,0,.13,1.12,5.41,5.41,0,0,0,.37,1,3.88,3.88,0,0,0,1.41,1.66,3.16,3.16,0,0,0,2.06.42,4.71,4.71,0,0,0,.93-.25,3.6,3.6,0,0,0,.83-.42l-.13-.28a3,3,0,0,1-2.85-.57,2.43,2.43,0,0,1-.55-1.19,3.26,3.26,0,0,1-.09-.68,3.2,3.2,0,0,1,.07-.63,2.26,2.26,0,0,1,1.46-1.6,3.27,3.27,0,0,1,1.17-.2,4.36,4.36,0,0,1,1.22.19,4.56,4.56,0,0,1,1.13.55,3.82,3.82,0,0,1,.9.81,5.11,5.11,0,0,1,1.08,2.26,8.86,8.86,0,0,1-.91,5.45,17.4,17.4,0,0,1-1.59,2.67,31.66,31.66,0,0,1-2,2.54c-.72.83-1.51,1.63-2.3,2.43s-1.64,1.59-2.49,2.4-1.7,1.65-2.52,2.56a17,17,0,0,0-2.24,3A11,11,0,0,0,134,58a9.54,9.54,0,0,0-.43,1.87,9.69,9.69,0,0,0,.33,3.66Z"/><path class="cls-2" d="M145.94,58.57a7.48,7.48,0,0,0-.69,2.71,5.72,5.72,0,0,0,.46,2.64l.3,0a7.53,7.53,0,0,1,2-4A19.23,19.23,0,0,1,151.46,57c2.55-1.74,5.4-3.24,8.15-5.38a32.23,32.23,0,0,0,3.88-3.41l.45-.48.44-.51c.14-.17.29-.33.42-.51l.41-.54c.27-.35.51-.75.76-1.12.12-.19.23-.39.35-.59s.22-.4.32-.61a9.75,9.75,0,0,0,1.12-5.45,6.39,6.39,0,0,0-2.67-4.59l-.21.22a6.77,6.77,0,0,1,.81,2.19,6.33,6.33,0,0,1,0,2.17,7.32,7.32,0,0,1-.65,2,10.19,10.19,0,0,1-1.13,1.82,20.34,20.34,0,0,1-3.11,3.19c-1.17,1-2.39,1.89-3.73,2.83a63.54,63.54,0,0,0-7.93,6A14.39,14.39,0,0,0,145.94,58.57Z"/><path class="cls-2" d="M161.65,59.26a6.52,6.52,0,0,0-2.16,3.25l.26.15a9.32,9.32,0,0,1,2.84-1.92,13.22,13.22,0,0,1,3.19-.88c1.1-.19,2.25-.31,3.44-.43l1.81-.22c.62-.1,1.26-.21,1.86-.34a16.73,16.73,0,0,0,7.1-3,9.31,9.31,0,0,0,2.57-3,6.24,6.24,0,0,0,.74-3.79H183a6,6,0,0,1-.65,1.6,7.51,7.51,0,0,1-1,1.37,9.55,9.55,0,0,1-2.6,2,15.62,15.62,0,0,1-3.08,1.24,25.71,25.71,0,0,1-3.34.73c-.6.1-1.14.2-1.73.27l-1.78.25a23.16,23.16,0,0,0-3.7.85A10.55,10.55,0,0,0,161.65,59.26Z"/><path class="cls-2" d="M126.91,53l.28-.14a3.5,3.5,0,0,1,.31-1.21,7.86,7.86,0,0,1,.56-1,14.15,14.15,0,0,0,1.29-2.33,6.13,6.13,0,0,0,.53-3.08,3.36,3.36,0,0,0-.57-1.58,2.24,2.24,0,0,0-1.32-1l-.16.27a2.59,2.59,0,0,1,.35,1.15,3.49,3.49,0,0,1-.12,1.07,9.72,9.72,0,0,1-.88,2.13,10.59,10.59,0,0,0-1.09,2.56,4,4,0,0,0,0,1.66A2.25,2.25,0,0,0,126.91,53Z"/></svg>